Paysage-Heavy.ufo
<glyph name="exclam" format="1">
  <advance width="306"/>
  <unicode hex="0021"/>
  <note>
    exclam
  </note>
  <outline>
    <contour>
      <point x="58" y="640" type="line"/>
      <point x="107" y="217" type="line"/>
      <point x="197" y="217" type="line"/>
      <point x="248" y="640" type="line"/>
    </contour>
    <component base="period" xOffset="2"/>
  </outline>
</glyph>
<glyph name="numbersign" format="1">
  <advance width="672"/>
  <unicode hex="0023"/>
  <note>
    numbersign
  </note>
  <outline>
    <contour>
      <point x="31" y="379" type="line"/>
      <point x="622" y="381" type="line"/>
      <point x="622" y="501" type="line"/>
      <point x="31" y="500" type="line"/>
    </contour>
    <contour>
      <point x="51" y="140" type="line"/>
      <point x="642" y="142" type="line"/>
      <point x="642" y="263" type="line"/>
      <point x="51" y="259" type="line"/>
    </contour>
    <contour>
      <point x="316" y="0" type="line"/>
      <point x="250" y="640" type="line"/>
      <point x="111" y="640" type="line"/>
      <point x="177" y="0" type="line"/>
    </contour>
    <contour>
      <point x="563" y="0" type="line"/>
      <point x="499" y="640" type="line"/>
      <point x="359" y="640" type="line"/>
      <point x="423" y="0" type="line"/>
    </contour>
  </outline>
</glyph>
<glyph name="dollar" format="1">
  <advance width="484"/>
  <unicode hex="0024"/>
  <note>
    dollar
  </note>
  <outline>
    <contour>
      <point x="442" y="576" type="line"/>
      <point x="383" y="592"/>
      <point x="302" y="607"/>
      <point x="222" y="607" type="curve" smooth="yes"/>
      <point x="105" y="607"/>
      <point x="20" y="558"/>
      <point x="20" y="451" type="curve" smooth="yes"/>
      <point x="20" y="382"/>
      <point x="68" y="306"/>
      <point x="164" y="274" type="curve" smooth="yes"/>
      <point x="247" y="246" type="line" smooth="yes"/>
      <point x="298" y="229"/>
      <point x="313" y="219"/>
      <point x="313" y="199" type="curve" smooth="yes"/>
      <point x="313" y="175"/>
      <point x="283" y="166"/>
      <point x="242" y="166" type="curve" smooth="yes"/>
      <point x="176" y="166"/>
      <point x="85" y="190"/>
      <point x="31" y="217" type="curve"/>
      <point x="31" y="85" type="line"/>
      <point x="79" y="58"/>
      <point x="136" y="33"/>
      <point x="271" y="33" type="curve" smooth="yes"/>
      <point x="389" y="33"/>
      <point x="474" y="103"/>
      <point x="474" y="197" type="curve" smooth="yes"/>
      <point x="474" y="251"/>
      <point x="455" y="317"/>
      <point x="334" y="360" type="curve" smooth="yes"/>
      <point x="235" y="395" type="line" smooth="yes"/>
      <point x="202" y="407"/>
      <point x="185" y="420"/>
      <point x="185" y="441" type="curve" smooth="yes"/>
      <point x="185" y="458"/>
      <point x="198" y="470"/>
      <point x="242" y="470" type="curve" smooth="yes"/>
      <point x="288" y="470"/>
      <point x="382" y="457"/>
      <point x="442" y="441" type="curve"/>
    </contour>
    <contour>
      <point x="210" y="-30" type="line"/>
      <point x="267" y="-30" type="line"/>
      <point x="267" y="121" type="line"/>
      <point x="257" y="143" type="line"/>
      <point x="257" y="307" type="line"/>
      <point x="287" y="324" type="line"/>
      <point x="287" y="493" type="line"/>
      <point x="277" y="517" type="line"/>
      <point x="277" y="679" type="line"/>
      <point x="220" y="679" type="line"/>
      <point x="220" y="518" type="line"/>
      <point x="230" y="488" type="line"/>
      <point x="230" y="326" type="line"/>
      <point x="200" y="303" type="line"/>
      <point x="200" y="141" type="line"/>
      <point x="210" y="121" type="line"/>
    </contour>
  </outline>
</glyph>
<glyph name="percent" format="1">
  <advance width="953"/>
  <unicode hex="0025"/>
  <note>
    percent
  </note>
  <outline>
    <contour>
      <point x="607" y="639" type="line"/>
      <point x="772" y="639" type="line"/>
      <point x="350" y="1" type="line"/>
      <point x="182" y="1" type="line"/>
    </contour>
    <contour>
      <point x="224" y="305" type="curve" smooth="yes"/>
      <point x="337" y="305"/>
      <point x="410" y="385"/>
      <point x="410" y="485" type="curve" smooth="yes"/>
      <point x="410" y="596"/>
      <point x="333" y="655"/>
      <point x="224" y="655" type="curve" smooth="yes"/>
      <point x="115" y="655"/>
      <point x="37" y="596"/>
      <point x="37" y="485" type="curve" smooth="yes"/>
      <point x="37" y="384"/>
      <point x="115" y="305"/>
    </contour>
    <contour>
      <point x="224" y="407" type="curve" smooth="yes"/>
      <point x="185" y="407"/>
      <point x="181" y="447"/>
      <point x="181" y="490" type="curve" smooth="yes"/>
      <point x="181" y="531"/>
      <point x="185" y="554"/>
      <point x="224" y="554" type="curve" smooth="yes"/>
      <point x="264" y="554"/>
      <point x="266" y="532"/>
      <point x="266" y="493" type="curve" smooth="yes"/>
      <point x="266" y="447"/>
      <point x="264" y="407"/>
    </contour>
    <contour>
      <point x="739" y="-15" type="curve" smooth="yes"/>
      <point x="861" y="-15"/>
      <point x="925" y="64"/>
      <point x="925" y="165" type="curve" smooth="yes"/>
      <point x="925" y="276"/>
      <point x="848" y="335"/>
      <point x="739" y="335" type="curve" smooth="yes"/>
      <point x="630" y="335"/>
      <point x="552" y="276"/>
      <point x="552" y="165" type="curve" smooth="yes"/>
      <point x="552" y="64"/>
      <point x="630" y="-15"/>
    </contour>
    <contour>
      <point x="739" y="86" type="curve" smooth="yes"/>
      <point x="700" y="86"/>
      <point x="696" y="126"/>
      <point x="696" y="170" type="curve" smooth="yes"/>
      <point x="696" y="211"/>
      <point x="700" y="233"/>
      <point x="739" y="233" type="curve" smooth="yes"/>
      <point x="779" y="233"/>
      <point x="781" y="212"/>
      <point x="781" y="173" type="curve" smooth="yes"/>
      <point x="781" y="126"/>
      <point x="779" y="86"/>
    </contour>
  </outline>
</glyph>
<glyph name="ampersand" format="1">
  <advance width="664"/>
  <unicode hex="0026"/>
  <outline>
    <contour>
      <point x="282" y="507" type="line"/>
      <point x="585" y="507" type="line"/>
      <point x="585" y="640" type="line"/>
      <point x="75" y="640" type="line"/>
      <point x="75" y="538" type="line"/>
      <point x="464" y="0" type="line"/>
      <point x="645" y="0" type="line"/>
    </contour>
    <contour>
      <point x="454" y="423" type="line"/>
      <point x="464" y="353"/>
      <point x="470" y="241"/>
      <point x="430" y="186" type="curve"/>
      <point x="493" y="114" type="line"/>
      <point x="552" y="150"/>
      <point x="624" y="315"/>
      <point x="624" y="423" type="curve"/>
    </contour>
    <contour>
      <point x="479" y="109" type="curve"/>
      <point x="413" y="182" type="line"/>
      <point x="362" y="137"/>
      <point x="345" y="127"/>
      <point x="300" y="127" type="curve" smooth="yes"/>
      <point x="238" y="127"/>
      <point x="205" y="163"/>
      <point x="205" y="207" type="curve" smooth="yes"/>
      <point x="205" y="236"/>
      <point x="226" y="266"/>
      <point x="262" y="283" type="curve"/>
      <point x="197" y="380" type="line"/>
      <point x="83" y="335"/>
      <point x="27" y="270"/>
      <point x="27" y="178" type="curve" smooth="yes"/>
      <point x="27" y="85"/>
      <point x="101" y="-10"/>
      <point x="259" y="-10" type="curve" smooth="yes"/>
      <point x="333" y="-10"/>
      <point x="416" y="11"/>
    </contour>
  </outline>
</glyph>
<glyph name="quotesingle" format="1">
  <advance width="278"/>
  <unicode hex="0027"/>
  <note>
    quotesingle
  </note>
  <outline>
    <contour>
      <point x="228" y="640" type="line"/>
      <point x="50" y="640" type="line"/>
      <point x="82" y="402" type="line"/>
      <point x="196" y="402" type="line"/>
    </contour>
  </outline>
</glyph>
<glyph name="parenleft" format="1">
  <advance width="369"/>
  <unicode hex="0028"/>
  <note>
    parenleft
  </note>
  <outline>
    <contour>
      <point x="332" y="728" type="curve"/>
      <point x="174" y="728" type="line"/>
      <point x="85" y="644"/>
      <point x="30" y="459"/>
      <point x="30" y="306" type="curve" smooth="yes"/>
      <point x="30" y="153"/>
      <point x="85" y="-42"/>
      <point x="174" y="-126" type="curve"/>
      <point x="332" y="-126" type="line"/>
      <point x="262" y="-56"/>
      <point x="205" y="116"/>
      <point x="205" y="306" type="curve" smooth="yes"/>
      <point x="205" y="496"/>
      <point x="262" y="658"/>
    </contour>
  </outline>
</glyph>
<glyph name="asterisk" format="1">
  <advance width="365"/>
  <unicode hex="002A"/>
  <note>
    asterisk
  </note>
  <outline>
    <contour>
      <point x="101" y="523" type="line"/>
      <point x="30" y="493" type="line"/>
      <point x="76" y="413" type="line"/>
      <point x="143" y="453" type="line"/>
      <point x="133" y="376" type="line"/>
      <point x="227" y="376" type="line"/>
      <point x="225" y="455" type="line"/>
      <point x="288" y="409" type="line"/>
      <point x="333" y="489" type="line"/>
      <point x="264" y="527" type="line"/>
      <point x="335" y="557" type="line"/>
      <point x="289" y="637" type="line"/>
      <point x="222" y="597" type="line"/>
      <point x="232" y="674" type="line"/>
      <point x="138" y="674" type="line"/>
      <point x="140" y="595" type="line"/>
      <point x="77" y="641" type="line"/>
      <point x="32" y="561" type="line"/>
    </contour>
  </outline>
</glyph>
<glyph name="plus" format="1">
  <advance width="581"/>
  <unicode hex="002B"/>
  <note>
    plus
  </note>
  <outline>
    <contour>
      <point x="356" y="105" type="line"/>
      <point x="356" y="526" type="line"/>
      <point x="226" y="526" type="line"/>
      <point x="226" y="105" type="line"/>
    </contour>
    <contour>
      <point x="80" y="251" type="line"/>
      <point x="501" y="251" type="line"/>
      <point x="501" y="381" type="line"/>
      <point x="80" y="381" type="line"/>
    </contour>
  </outline>
</glyph>
<glyph name="comma" format="1">
  <advance width="299"/>
  <unicode hex="002C"/>
  <note>
    comma
  </note>
  <outline>
    <contour>
      <point x="115" y="0" type="line"/>
      <point x="106" y="-41"/>
      <point x="84" y="-72"/>
      <point x="56" y="-107" type="curve"/>
      <point x="171" y="-148" type="line"/>
      <point x="237" y="-47"/>
      <point x="245" y="46"/>
      <point x="221" y="153" type="curve"/>
      <point x="56" y="153" type="line"/>
      <point x="56" y="0" type="line"/>
    </contour>
  </outline>
</glyph>
<glyph name="hyphen" format="1">
  <advance width="451"/>
  <unicode hex="002D"/>
  <note>
    hyphen
  </note>
  <outline>
    <contour>
      <point x="70" y="227" type="line"/>
      <point x="381" y="227" type="line"/>
      <point x="381" y="357" type="line"/>
      <point x="70" y="357" type="line"/>
    </contour>
  </outline>
</glyph>
<glyph name="period" format="1">
  <advance width="300"/>
  <unicode hex="002E"/>
  <note>
    period
  </note>
  <outline>
    <contour>
      <point x="66" y="0" type="line"/>
      <point x="234" y="0" type="line"/>
      <point x="234" y="160" type="line"/>
      <point x="66" y="160" type="line"/>
    </contour>
  </outline>
</glyph>
<glyph name="slash" format="1">
  <advance width="436"/>
  <unicode hex="002F"/>
  <note>
    slash
  </note>
  <outline>
    <contour>
      <point x="212" y="670" type="line"/>
      <point x="281" y="670" type="line"/>
      <point x="226" y="-60" type="line"/>
      <point x="29" y="-60" type="line"/>
    </contour>
    <contour>
      <point x="212" y="670" type="line"/>
      <point x="407" y="670" type="line"/>
      <point x="226" y="-60" type="line"/>
      <point x="29" y="-60" type="line"/>
    </contour>
  </outline>
</glyph>
<glyph name="zero" format="1">
  <advance width="626"/>
  <unicode hex="0030"/>
  <note>
    zero
  </note>
  <outline>
    <contour>
      <point x="506" y="-10"/>
      <point x="586" y="161"/>
      <point x="586" y="339" type="curve" smooth="yes"/>
      <point x="586" y="532"/>
      <point x="516" y="650"/>
      <point x="314" y="650" type="curve" smooth="yes"/>
      <point x="111" y="650"/>
      <point x="40" y="532"/>
      <point x="40" y="339" type="curve" smooth="yes"/>
      <point x="40" y="161"/>
      <point x="121" y="-10"/>
      <point x="314" y="-10" type="curve" smooth="yes"/>
    </contour>
    <contour>
      <point x="381" y="517"/>
      <point x="401" y="464"/>
      <point x="401" y="362" type="curve" smooth="yes"/>
      <point x="401" y="201"/>
      <point x="381" y="124"/>
      <point x="314" y="124" type="curve" smooth="yes"/>
      <point x="246" y="124"/>
      <point x="224" y="201"/>
      <point x="226" y="362" type="curve" smooth="yes"/>
      <point x="227" y="464"/>
      <point x="247" y="517"/>
      <point x="314" y="517" type="curve" smooth="yes"/>
    </contour>
  </outline>
</glyph>
<glyph name="one" format="1">
  <advance width="531"/>
  <unicode hex="0031"/>
  <note>
    one
  </note>
  <outline>
    <contour>
      <point x="362" y="0" type="line"/>
      <point x="362" y="640" type="line"/>
      <point x="241" y="640" type="line"/>
      <point x="167" y="589"/>
      <point x="135" y="569"/>
      <point x="41" y="545" type="curve"/>
      <point x="41" y="419" type="line"/>
      <point x="187" y="449" type="line"/>
      <point x="187" y="0" type="line"/>
    </contour>
    <contour>
      <point x="30" y="133" type="line"/>
      <point x="30" y="0" type="line"/>
      <point x="501" y="0" type="line"/>
      <point x="501" y="133" type="line"/>
    </contour>
  </outline>
</glyph>
<glyph name="two" format="1">
  <advance width="527"/>
  <unicode hex="0032"/>
  <note>
    two
  </note>
  <outline>
    <contour>
      <point x="40" y="601" type="line"/>
      <point x="91" y="625"/>
      <point x="140" y="650"/>
      <point x="237" y="650" type="curve" smooth="yes"/>
      <point x="416" y="650"/>
      <point x="480" y="544"/>
      <point x="480" y="453" type="curve" smooth="yes"/>
      <point x="480" y="378"/>
      <point x="446" y="304"/>
      <point x="369" y="225" type="curve" smooth="yes"/>
      <point x="279" y="133" type="line"/>
      <point x="487" y="133" type="line"/>
      <point x="487" y="0" type="line"/>
      <point x="50" y="0" type="line"/>
      <point x="50" y="107" type="line"/>
      <point x="189" y="246" type="line" smooth="yes"/>
      <point x="267" y="324"/>
      <point x="291" y="365"/>
      <point x="291" y="427" type="curve" smooth="yes"/>
      <point x="291" y="459"/>
      <point x="267" y="509"/>
      <point x="204" y="509" type="curve" smooth="yes"/>
      <point x="141" y="509"/>
      <point x="88" y="483"/>
      <point x="40" y="455" type="curve"/>
    </contour>
  </outline>
</glyph>
<glyph name="three" format="1">
  <advance width="550"/>
  <unicode hex="0033"/>
  <note>
    three
  </note>
  <outline>
    <contour>
      <point x="376" y="340" type="curve"/>
      <point x="454" y="364"/>
      <point x="491" y="422"/>
      <point x="491" y="473" type="curve" smooth="yes"/>
      <point x="491" y="592"/>
      <point x="367" y="650"/>
      <point x="253" y="650" type="curve" smooth="yes"/>
      <point x="183" y="650"/>
      <point x="91" y="633"/>
      <point x="40" y="599" type="curve"/>
      <point x="40" y="458" type="line"/>
      <point x="75" y="483"/>
      <point x="154" y="507"/>
      <point x="215" y="507" type="curve" smooth="yes"/>
      <point x="270" y="507"/>
      <point x="297" y="491"/>
      <point x="297" y="454" type="curve" smooth="yes"/>
      <point x="297" y="414"/>
      <point x="274" y="392"/>
      <point x="186" y="381" type="curve" smooth="yes"/>
      <point x="103" y="371" type="line"/>
      <point x="116" y="253" type="line"/>
      <point x="206" y="253" type="line" smooth="yes"/>
      <point x="306" y="253"/>
      <point x="330" y="243"/>
      <point x="330" y="196" type="curve" smooth="yes"/>
      <point x="330" y="136"/>
      <point x="282" y="125"/>
      <point x="211" y="125" type="curve" smooth="yes"/>
      <point x="157" y="125"/>
      <point x="83" y="148"/>
      <point x="44" y="168" type="curve"/>
      <point x="44" y="34" type="line"/>
      <point x="93" y="4"/>
      <point x="163" y="-10"/>
      <point x="259" y="-10" type="curve" smooth="yes"/>
      <point x="419" y="-10"/>
      <point x="520" y="71"/>
      <point x="520" y="196" type="curve" smooth="yes"/>
      <point x="520" y="306"/>
      <point x="437" y="330"/>
    </contour>
  </outline>
</glyph>
<glyph name="four" format="1">
  <advance width="560"/>
  <unicode hex="0034"/>
  <note>
    four
  </note>
  <outline>
    <contour>
      <point x="290" y="99" type="line"/>
      <point x="290" y="0" type="line"/>
      <point x="465" y="0" type="line"/>
      <point x="465" y="99" type="line"/>
      <point x="552" y="99" type="line"/>
      <point x="552" y="235" type="line"/>
      <point x="465" y="235" type="line"/>
      <point x="465" y="640" type="line"/>
      <point x="279" y="640" type="line"/>
      <point x="19" y="223" type="line"/>
      <point x="19" y="99" type="line"/>
    </contour>
    <contour>
      <point x="292" y="475" type="line"/>
      <point x="296" y="475" type="line"/>
      <point x="290" y="267" type="line"/>
      <point x="290" y="233" type="line"/>
      <point x="171" y="233" type="line"/>
    </contour>
  </outline>
</glyph>
<glyph name="five" format="1">
  <advance width="555"/>
  <unicode hex="0035"/>
  <note>
    five
  </note>
  <outline>
    <contour>
      <point x="196" y="287"/>
      <point x="245" y="296"/>
      <point x="276" y="296" type="curve" smooth="yes"/>
      <point x="344" y="296"/>
      <point x="350" y="254"/>
      <point x="350" y="205" type="curve" smooth="yes"/>
      <point x="350" y="144"/>
      <point x="318" y="127"/>
      <point x="244" y="127" type="curve" smooth="yes"/>
      <point x="154" y="127"/>
      <point x="107" y="155"/>
      <point x="64" y="178" type="curve"/>
      <point x="64" y="42" type="line"/>
      <point x="111" y="14"/>
      <point x="180" y="-10"/>
      <point x="270" y="-10" type="curve" smooth="yes"/>
      <point x="414" y="-10"/>
      <point x="525" y="56"/>
      <point x="525" y="208" type="curve" smooth="yes"/>
      <point x="525" y="295"/>
      <point x="493" y="414"/>
      <point x="348" y="414" type="curve" smooth="yes"/>
      <point x="294" y="414"/>
      <point x="250" y="404"/>
      <point x="211" y="375" type="curve"/>
      <point x="226" y="327" type="line"/>
      <point x="228" y="473" type="line"/>
      <point x="228" y="506" type="line"/>
      <point x="488" y="506" type="line"/>
      <point x="488" y="639" type="line"/>
      <point x="58" y="639" type="line"/>
      <point x="58" y="282" type="line"/>
      <point x="139" y="251" type="line"/>
    </contour>
  </outline>
</glyph>
<glyph name="seven" format="1">
  <advance width="533"/>
  <unicode hex="0037"/>
  <note>
    seven
  </note>
  <outline>
    <contour>
      <point x="505" y="640" type="line"/>
      <point x="505" y="538" type="line"/>
      <point x="256" y="0" type="line"/>
      <point x="71" y="0" type="line"/>
      <point x="306" y="507" type="line"/>
      <point x="37" y="507" type="line"/>
      <point x="37" y="640" type="line"/>
    </contour>
  </outline>
</glyph>
<glyph name="eight" format="1">
  <advance width="582"/>
  <unicode hex="0038"/>
  <note>
    eight
  </note>
  <outline>
    <contour>
      <point x="56" y="484" type="curve" smooth="yes"/>
      <point x="56" y="415"/>
      <point x="90" y="361"/>
      <point x="140" y="327" type="curve"/>
      <point x="82" y="301"/>
      <point x="30" y="260"/>
      <point x="30" y="174" type="curve" smooth="yes"/>
      <point x="30" y="61"/>
      <point x="128" y="-10"/>
      <point x="292" y="-10" type="curve" smooth="yes"/>
      <point x="460" y="-10"/>
      <point x="552" y="77"/>
      <point x="552" y="186" type="curve" smooth="yes"/>
      <point x="552" y="253"/>
      <point x="513" y="308"/>
      <point x="436" y="340" type="curve"/>
      <point x="498" y="363"/>
      <point x="538" y="412"/>
      <point x="538" y="482" type="curve" smooth="yes"/>
      <point x="538" y="593"/>
      <point x="449" y="649"/>
      <point x="291" y="649" type="curve" smooth="yes"/>
      <point x="142" y="649"/>
      <point x="56" y="593"/>
    </contour>
    <contour>
      <point x="229" y="473" type="curve" smooth="yes"/>
      <point x="229" y="512"/>
      <point x="251" y="534"/>
      <point x="293" y="534" type="curve" smooth="yes"/>
      <point x="340" y="534"/>
      <point x="364" y="512"/>
      <point x="364" y="473" type="curve" smooth="yes"/>
      <point x="364" y="443"/>
      <point x="350" y="416"/>
      <point x="321" y="392" type="curve"/>
      <point x="285" y="402" type="line" smooth="yes"/>
      <point x="250" y="413"/>
      <point x="229" y="437"/>
    </contour>
    <contour>
      <point x="382" y="179" type="curve" smooth="yes"/>
      <point x="382" y="132"/>
      <point x="364" y="107"/>
      <point x="298" y="107" type="curve" smooth="yes"/>
      <point x="237" y="107"/>
      <point x="194" y="138"/>
      <point x="194" y="195" type="curve" smooth="yes"/>
      <point x="194" y="237"/>
      <point x="213" y="259"/>
      <point x="228" y="270" type="curve"/>
      <point x="304" y="244" type="line" smooth="yes"/>
      <point x="356" y="227"/>
      <point x="382" y="205"/>
    </contour>
  </outline>
</glyph>
<glyph name="nine" format="1">
  <advance width="564"/>
  <unicode hex="0039"/>
  <note>
    nine
  </note>
  <outline>
    <contour>
      <point x="362" y="462"/>
      <point x="362" y="312" type="curve" smooth="yes"/>
      <point x="362" y="177"/>
      <point x="333" y="126"/>
      <point x="223" y="126" type="curve" smooth="yes"/>
      <point x="167" y="126"/>
      <point x="115" y="141"/>
      <point x="78" y="157" type="curve"/>
      <point x="78" y="27" type="line"/>
      <point x="130" y="2"/>
      <point x="197" y="-10"/>
      <point x="248" y="-10" type="curve" smooth="yes"/>
      <point x="435" y="-10"/>
      <point x="534" y="120"/>
      <point x="534" y="342" type="curve" smooth="yes"/>
      <point x="534" y="529"/>
      <point x="439" y="650"/>
      <point x="268" y="650" type="curve" smooth="yes"/>
      <point x="100" y="650"/>
      <point x="30" y="552"/>
      <point x="30" y="434" type="curve" smooth="yes"/>
      <point x="30" y="302"/>
      <point x="114" y="228"/>
      <point x="238" y="228" type="curve" smooth="yes"/>
      <point x="322" y="228"/>
      <point x="370" y="272"/>
      <point x="406" y="300" type="curve"/>
      <point x="402" y="394" type="line"/>
      <point x="370" y="357"/>
      <point x="340" y="330"/>
      <point x="275" y="330" type="curve" smooth="yes"/>
      <point x="234" y="330"/>
      <point x="205" y="352"/>
      <point x="205" y="423" type="curve" smooth="yes"/>
      <point x="205" y="477"/>
      <point x="216" y="517"/>
      <point x="268" y="517" type="curve" smooth="yes"/>
      <point x="335" y="517"/>
    </contour>
  </outline>
</glyph>
<glyph name="semicolon" format="1">
  <advance width="312"/>
  <unicode hex="003B"/>
  <note>
    semicolon
  </note>
  <outline>
    <contour>
      <point x="73" y="300" type="line"/>
      <point x="241" y="300" type="line"/>
      <point x="241" y="460" type="line"/>
      <point x="73" y="460" type="line"/>
    </contour>
    <contour>
      <point x="127" y="0" type="line"/>
      <point x="118" y="-43"/>
      <point x="95" y="-86"/>
      <point x="66" y="-122" type="curve"/>
      <point x="176" y="-185" type="line"/>
      <point x="241" y="-95"/>
      <point x="258" y="22"/>
      <point x="239" y="160" type="curve"/>
      <point x="73" y="160" type="line"/>
      <point x="73" y="0" type="line"/>
    </contour>
  </outline>
</glyph>
<glyph name="equal" format="1">
  <advance width="615"/>
  <unicode hex="003D"/>
  <note>
    equal
  </note>
  <outline>
    <contour>
      <point x="535" y="486" type="line"/>
      <point x="535" y="356" type="line"/>
      <point x="80" y="356" type="line"/>
      <point x="80" y="486" type="line"/>
    </contour>
    <contour>
      <point x="535" y="251" type="line"/>
      <point x="535" y="121" type="line"/>
      <point x="80" y="121" type="line"/>
      <point x="80" y="251" type="line"/>
    </contour>
  </outline>
</glyph>
<glyph name="greater" format="1">
  <advance width="438"/>
  <unicode hex="003E"/>
  <note>
    greater
  </note>
  <outline>
    <contour>
      <point x="176" y="55" type="line"/>
      <point x="418" y="294" type="line"/>
      <point x="178" y="534" type="line"/>
      <point x="70" y="438" type="line"/>
      <point x="230" y="295" type="line"/>
      <point x="71" y="156" type="line"/>
    </contour>
  </outline>
</glyph>
<glyph name="question" format="1">
  <advance width="534"/>
  <unicode hex="003F"/>
  <outline>
    <contour>
      <point x="512" y="483" type="curve" smooth="yes"/>
      <point x="512" y="602"/>
      <point x="392" y="650"/>
      <point x="262" y="650" type="curve" smooth="yes"/>
      <point x="177" y="650"/>
      <point x="109" y="635"/>
      <point x="62" y="608" type="curve"/>
      <point x="62" y="460" type="line"/>
      <point x="100" y="484"/>
      <point x="155" y="502"/>
      <point x="202" y="502" type="curve" smooth="yes"/>
      <point x="259" y="502"/>
      <point x="285" y="477"/>
      <point x="285" y="448" type="curve" smooth="yes"/>
      <point x="285" y="399"/>
      <point x="233" y="386"/>
      <point x="157" y="342" type="curve"/>
      <point x="192" y="217" type="line"/>
      <point x="282" y="217" type="line"/>
      <point x="299" y="284" type="line"/>
      <point x="408" y="297"/>
      <point x="512" y="381"/>
    </contour>
    <component base="period" xOffset="88"/>
  </outline>
</glyph>
<glyph name="at" format="1">
  <advance width="925"/>
  <unicode hex="0040"/>
  <note>
    at
  </note>
  <outline>
    <contour>
      <point x="499" y="202" type="line"/>
      <point x="503" y="107"/>
      <point x="580" y="35"/>
      <point x="671" y="35" type="curve" smooth="yes"/>
      <point x="807" y="35"/>
      <point x="895" y="178"/>
      <point x="895" y="328" type="curve" smooth="yes"/>
      <point x="895" y="513"/>
      <point x="744" y="655"/>
      <point x="470" y="655" type="curve" smooth="yes"/>
      <point x="201" y="655"/>
      <point x="30" y="483"/>
      <point x="30" y="251" type="curve" smooth="yes"/>
      <point x="30" y="35"/>
      <point x="188" y="-116"/>
      <point x="422" y="-116" type="curve" smooth="yes"/>
      <point x="515" y="-116"/>
      <point x="584" y="-94"/>
      <point x="613" y="-76" type="curve"/>
      <point x="613" y="-10" type="line"/>
      <point x="578" y="-32"/>
      <point x="493" y="-52"/>
      <point x="425" y="-52" type="curve" smooth="yes"/>
      <point x="227" y="-52"/>
      <point x="94" y="54"/>
      <point x="94" y="255" type="curve" smooth="yes"/>
      <point x="94" y="468"/>
      <point x="251" y="591"/>
      <point x="470" y="591" type="curve" smooth="yes"/>
      <point x="670" y="591"/>
      <point x="832" y="497"/>
      <point x="832" y="320" type="curve" smooth="yes"/>
      <point x="832" y="207"/>
      <point x="772" y="98"/>
      <point x="697" y="98" type="curve" smooth="yes"/>
      <point x="658" y="98"/>
      <point x="649" y="123"/>
      <point x="658" y="165" type="curve" smooth="yes"/>
      <point x="718" y="460" type="line"/>
      <point x="583" y="460" type="line"/>
      <point x="540" y="370" type="line"/>
      <point x="504" y="441"/>
      <point x="455" y="476"/>
      <point x="393" y="476" type="curve" smooth="yes"/>
      <point x="279" y="476"/>
      <point x="206" y="367"/>
      <point x="206" y="236" type="curve" smooth="yes"/>
      <point x="206" y="142"/>
      <point x="244" y="61"/>
      <point x="344" y="61" type="curve" smooth="yes"/>
      <point x="432" y="61"/>
      <point x="494" y="139"/>
      <point x="507" y="202" type="curve"/>
    </contour>
    <contour>
      <point x="512" y="240"/>
      <point x="475" y="195"/>
      <point x="421" y="195" type="curve" smooth="yes"/>
      <point x="382" y="195"/>
      <point x="370" y="228"/>
      <point x="375" y="260" type="curve" smooth="yes"/>
      <point x="382" y="308"/>
      <point x="400" y="346"/>
      <point x="469" y="346" type="curve" smooth="yes"/>
      <point x="505" y="346"/>
      <point x="524" y="327"/>
      <point x="519" y="291" type="curve" smooth="yes"/>
    </contour>
  </outline>
</glyph>
<glyph name="A" format="1">
  <advance width="626"/>
  <unicode hex="0041"/>
  <note>
    A
  </note>
  <outline>
    <contour>
      <point x="476" y="226" type="line"/>
      <point x="476" y="103" type="line"/>
      <point x="150" y="103" type="line"/>
      <point x="150" y="226" type="line"/>
    </contour>
    <contour>
      <point x="413" y="640" type="line"/>
      <point x="606" y="0" type="line"/>
      <point x="434" y="0" type="line"/>
      <point x="354" y="289" type="line"/>
      <point x="317" y="440" type="line"/>
      <point x="308" y="440" type="line"/>
      <point x="273" y="289" type="line"/>
      <point x="193" y="0" type="line"/>
      <point x="19" y="0" type="line"/>
      <point x="216" y="640" type="line"/>
    </contour>
    <contour>
      <point x="555" y="0" type="move" name="ogonek"/>
    </contour>
    <contour>
      <point x="314" y="640" type="move" name="top"/>
    </contour>
  </outline>
</glyph>
<glyph name="B" format="1">
  <advance width="627"/>
  <unicode hex="0042"/>
  <note>
    B
  </note>
  <outline>
    <contour>
      <point x="382" y="0" type="line" smooth="yes"/>
      <point x="525" y="0"/>
      <point x="597" y="80"/>
      <point x="597" y="176" type="curve" smooth="yes"/>
      <point x="597" y="274"/>
      <point x="522" y="329"/>
      <point x="372" y="329" type="curve"/>
      <point x="372" y="314" type="line"/>
      <point x="514" y="314"/>
      <point x="567" y="393"/>
      <point x="567" y="478" type="curve" smooth="yes"/>
      <point x="567" y="567"/>
      <point x="508" y="640"/>
      <point x="361" y="640" type="curve" smooth="yes"/>
      <point x="58" y="640" type="line"/>
      <point x="58" y="0" type="line"/>
    </contour>
    <contour>
      <point x="233" y="509" type="line"/>
      <point x="286" y="509" type="line" smooth="yes"/>
      <point x="366" y="509"/>
      <point x="393" y="501"/>
      <point x="393" y="444" type="curve" smooth="yes"/>
      <point x="393" y="389"/>
      <point x="377" y="374"/>
      <point x="291" y="374" type="curve" smooth="yes"/>
      <point x="166" y="374" type="line"/>
      <point x="166" y="267" type="line"/>
      <point x="300" y="267" type="line" smooth="yes"/>
      <point x="410" y="267"/>
      <point x="423" y="245"/>
      <point x="423" y="195" type="curve" smooth="yes"/>
      <point x="423" y="144"/>
      <point x="387" y="133"/>
      <point x="319" y="133" type="curve" smooth="yes"/>
      <point x="233" y="133" type="line"/>
    </contour>
  </outline>
</glyph>
<glyph name="C" format="1">
  <advance width="586"/>
  <unicode hex="0043"/>
  <note>
    C
  </note>
  <outline>
    <contour>
      <point x="216" y="319" type="curve" smooth="yes"/>
      <point x="216" y="456"/>
      <point x="268" y="506"/>
      <point x="367" y="506" type="curve" smooth="yes"/>
      <point x="425" y="506"/>
      <point x="474" y="495"/>
      <point x="547" y="458" type="curve"/>
      <point x="547" y="601" type="line"/>
      <point x="506" y="626"/>
      <point x="422" y="650"/>
      <point x="350" y="650" type="curve" smooth="yes"/>
      <point x="145" y="650"/>
      <point x="30" y="537"/>
      <point x="30" y="338" type="curve" smooth="yes"/>
      <point x="30" y="120"/>
      <point x="179" y="-10"/>
      <point x="330" y="-10" type="curve" smooth="yes"/>
      <point x="439" y="-10"/>
      <point x="496" y="16"/>
      <point x="537" y="69" type="curve"/>
      <point x="537" y="192" type="line"/>
      <point x="507" y="163"/>
      <point x="458" y="133"/>
      <point x="389" y="133" type="curve" smooth="yes"/>
      <point x="278" y="133"/>
      <point x="216" y="194"/>
    </contour>
    <contour>
      <point x="334" y="0" type="move" name="bottom"/>
    </contour>
    <contour>
      <point x="323" y="640" type="move" name="top"/>
    </contour>
  </outline>
</glyph>
<glyph name="D" format="1">
  <advance width="665"/>
  <unicode hex="0044"/>
  <note>
    D
  </note>
  <outline>
    <contour>
      <point x="58" y="0" type="line"/>
      <point x="298" y="0" type="line" smooth="yes"/>
      <point x="523" y="0"/>
      <point x="635" y="151"/>
      <point x="635" y="338" type="curve" smooth="yes"/>
      <point x="635" y="488"/>
      <point x="582" y="640"/>
      <point x="327" y="640" type="curve" smooth="yes"/>
      <point x="58" y="640" type="line"/>
    </contour>
    <contour>
      <point x="233" y="133" type="line"/>
      <point x="233" y="507" type="line"/>
      <point x="286" y="507" type="line" smooth="yes"/>
      <point x="396" y="507"/>
      <point x="461" y="461"/>
      <point x="461" y="332" type="curve" smooth="yes"/>
      <point x="461" y="227"/>
      <point x="407" y="133"/>
      <point x="280" y="133" type="curve" smooth="yes"/>
    </contour>
    <contour>
      <point x="355" y="0" type="move" name="bottom"/>
    </contour>
    <contour>
      <point x="146" y="306" type="move" name="center"/>
    </contour>
    <contour>
      <point x="355" y="640" type="move" name="top"/>
    </contour>
  </outline>
</glyph>
<glyph name="E" format="1">
  <advance width="550"/>
  <unicode hex="0045"/>
  <note>
    E
  </note>
  <outline>
    <contour>
      <point x="516" y="133" type="line"/>
      <point x="516" y="0" type="line"/>
      <point x="58" y="0" type="line"/>
      <point x="58" y="640" type="line"/>
      <point x="516" y="640" type="line"/>
      <point x="516" y="507" type="line"/>
      <point x="233" y="507" type="line"/>
      <point x="233" y="390" type="line"/>
      <point x="476" y="390" type="line"/>
      <point x="476" y="268" type="line"/>
      <point x="233" y="268" type="line"/>
      <point x="233" y="133" type="line"/>
    </contour>
    <contour>
      <point x="328" y="0" type="move" name="bottom"/>
    </contour>
    <contour>
      <point x="474" y="0" type="move" name="ogonek"/>
    </contour>
    <contour>
      <point x="287" y="640" type="move" name="top"/>
    </contour>
    <contour>
      <point x="106" y="640" type="move" name="topleft"/>
    </contour>
  </outline>
</glyph>
<glyph name="F" format="1">
  <advance width="521"/>
  <unicode hex="0046"/>
  <note>
    F
  </note>
  <outline>
    <contour>
      <point x="58" y="0" type="line"/>
      <point x="233" y="0" type="line"/>
      <point x="233" y="242" type="line"/>
      <point x="466" y="242" type="line"/>
      <point x="466" y="364" type="line"/>
      <point x="233" y="364" type="line"/>
      <point x="233" y="508" type="line"/>
      <point x="507" y="508" type="line"/>
      <point x="506" y="641" type="line"/>
      <point x="58" y="641" type="line"/>
    </contour>
  </outline>
</glyph>
<glyph name="G" format="1">
  <advance width="676"/>
  <unicode hex="0047"/>
  <note>
    G
  </note>
  <outline>
    <contour>
      <point x="334" y="369" type="line"/>
      <point x="334" y="267" type="line"/>
      <point x="452" y="267" type="line"/>
      <point x="452" y="212"/>
      <point x="427" y="135"/>
      <point x="333" y="135" type="curve" smooth="yes"/>
      <point x="279" y="135"/>
      <point x="215" y="173"/>
      <point x="215" y="323" type="curve" smooth="yes"/>
      <point x="215" y="458"/>
      <point x="269" y="507"/>
      <point x="397" y="507" type="curve" smooth="yes"/>
      <point x="458" y="507"/>
      <point x="535" y="488"/>
      <point x="600" y="453" type="curve"/>
      <point x="600" y="599" type="line"/>
      <point x="559" y="628"/>
      <point x="446" y="650"/>
      <point x="366" y="650" type="curve" smooth="yes"/>
      <point x="142" y="650"/>
      <point x="30" y="539"/>
      <point x="30" y="336" type="curve" smooth="yes"/>
      <point x="30" y="114"/>
      <point x="168" y="-10"/>
      <point x="304" y="-10" type="curve" smooth="yes"/>
      <point x="389" y="-10"/>
      <point x="453" y="37"/>
      <point x="476" y="101" type="curve"/>
      <point x="488" y="0" type="line"/>
      <point x="627" y="0" type="line"/>
      <point x="627" y="369" type="line"/>
    </contour>
    <contour>
      <point x="366" y="640" type="move" name="top"/>
    </contour>
  </outline>
</glyph>
<glyph name="H" format="1">
  <advance width="680"/>
  <unicode hex="0048"/>
  <note>
    H
  </note>
  <outline>
    <contour>
      <point x="622" y="0" type="line"/>
      <point x="447" y="0" type="line"/>
      <point x="447" y="258" type="line"/>
      <point x="233" y="258" type="line"/>
      <point x="233" y="0" type="line"/>
      <point x="58" y="0" type="line"/>
      <point x="58" y="640" type="line"/>
      <point x="233" y="640" type="line"/>
      <point x="233" y="392" type="line"/>
      <point x="447" y="392" type="line"/>
      <point x="447" y="640" type="line"/>
      <point x="622" y="640" type="line"/>
    </contour>
    <contour>
      <point x="340" y="512" type="move" name="center"/>
    </contour>
    <contour>
      <point x="340" y="640" type="move" name="top"/>
    </contour>
  </outline>
</glyph>
<glyph name="I" format="1">
  <advance width="291"/>
  <unicode hex="0049"/>
  <note>
    I
  </note>
  <outline>
    <contour>
      <point x="233" y="0" type="line"/>
      <point x="58" y="0" type="line"/>
      <point x="58" y="640" type="line"/>
      <point x="233" y="640" type="line"/>
    </contour>
    <contour>
      <point x="146" y="0" type="move" name="bottom"/>
    </contour>
    <contour>
      <point x="195" y="0" type="move" name="ogonek"/>
    </contour>
    <contour>
      <point x="146" y="640" type="move" name="top"/>
    </contour>
    <contour>
      <point x="91" y="640" type="move" name="topleft"/>
    </contour>
  </outline>
</glyph>
<glyph name="J" format="1">
  <advance width="383"/>
  <unicode hex="004A"/>
  <note>
    J
  </note>
  <outline>
    <contour>
      <point x="161" y="640" type="line"/>
      <point x="161" y="200" type="line" smooth="yes"/>
      <point x="161" y="148"/>
      <point x="125" y="134"/>
      <point x="87" y="134" type="curve" smooth="yes"/>
      <point x="57" y="134"/>
      <point x="26" y="139"/>
      <point x="15" y="143" type="curve"/>
      <point x="15" y="6" type="line"/>
      <point x="50" y="-5"/>
      <point x="95" y="-15"/>
      <point x="159" y="-15" type="curve" smooth="yes"/>
      <point x="247" y="-15"/>
      <point x="335" y="50"/>
      <point x="335" y="154" type="curve" smooth="yes"/>
      <point x="335" y="640" type="line"/>
    </contour>
    <contour>
      <point x="248" y="640" type="move" name="top"/>
    </contour>
  </outline>
</glyph>
<glyph name="K" format="1">
  <advance width="641"/>
  <unicode hex="004B"/>
  <note>
    K
  </note>
  <outline>
    <contour>
      <point x="58" y="0" type="line"/>
      <point x="233" y="0" type="line"/>
      <point x="233" y="640" type="line"/>
      <point x="58" y="640" type="line"/>
    </contour>
    <contour>
      <point x="641" y="640" type="line"/>
      <point x="441" y="640" type="line"/>
      <point x="233" y="330" type="line"/>
      <point x="233" y="310" type="line"/>
      <point x="431" y="0" type="line"/>
      <point x="641" y="0" type="line"/>
      <point x="413" y="325" type="line"/>
    </contour>
    <contour>
      <point x="333" y="0" type="move" name="bottom"/>
    </contour>
    <contour>
      <point x="396" y="640" type="move" name="top"/>
    </contour>
  </outline>
</glyph>
<glyph name="L" format="1">
  <advance width="480"/>
  <unicode hex="004C"/>
  <note>
    L
  </note>
  <outline>
    <contour>
      <point x="461" y="133" type="line"/>
      <point x="233" y="133" type="line"/>
      <point x="233" y="640" type="line"/>
      <point x="58" y="640" type="line"/>
      <point x="58" y="0" type="line"/>
      <point x="461" y="0" type="line"/>
    </contour>
    <contour>
      <point x="286" y="0" type="move" name="bottom"/>
    </contour>
    <contour>
      <point x="146" y="320" type="move" name="center"/>
    </contour>
    <contour>
      <point x="146" y="640" type="move" name="top"/>
    </contour>
    <contour>
      <point x="503" y="640" type="move" name="topright"/>
    </contour>
  </outline>
</glyph>
<glyph name="M" format="1">
  <advance width="803"/>
  <unicode hex="004D"/>
  <note>
    M
  </note>
  <outline>
    <contour>
      <point x="58" y="640" type="line"/>
      <point x="58" y="0" type="line"/>
      <point x="233" y="0" type="line"/>
      <point x="233" y="77" type="line"/>
      <point x="209" y="399" type="line"/>
      <point x="214" y="399" type="line"/>
      <point x="356" y="91" type="line"/>
      <point x="447" y="91" type="line"/>
      <point x="589" y="399" type="line"/>
      <point x="594" y="399" type="line"/>
      <point x="570" y="77" type="line"/>
      <point x="570" y="0" type="line"/>
      <point x="745" y="0" type="line"/>
      <point x="745" y="640" type="line"/>
      <point x="559" y="640" type="line"/>
      <point x="465" y="470" type="line"/>
      <point x="404" y="349" type="line"/>
      <point x="400" y="349" type="line"/>
      <point x="340" y="470" type="line"/>
      <point x="245" y="640" type="line"/>
    </contour>
  </outline>
</glyph>
<glyph name="N" format="1">
  <advance width="689"/>
  <unicode hex="004E"/>
  <note>
    N
  </note>
  <outline>
    <contour>
      <point x="457" y="640" type="line"/>
      <point x="456" y="516" type="line"/>
      <point x="479" y="254" type="line"/>
      <point x="468" y="254" type="line"/>
      <point x="245" y="640" type="line"/>
      <point x="58" y="640" type="line"/>
      <point x="58" y="0" type="line"/>
      <point x="233" y="0" type="line"/>
      <point x="233" y="124" type="line"/>
      <point x="213" y="386" type="line"/>
      <point x="223" y="386" type="line"/>
      <point x="444" y="0" type="line"/>
      <point x="631" y="0" type="line"/>
      <point x="631" y="640" type="line"/>
    </contour>
    <contour>
      <point x="351" y="0" type="move" name="bottom"/>
    </contour>
    <contour>
      <point x="351" y="640" type="move" name="top"/>
    </contour>
  </outline>
</glyph>
<glyph name="O" format="1">
  <advance width="687"/>
  <unicode hex="004F"/>
  <note>
    O
  </note>
  <outline>
    <contour>
      <point x="153" y="650"/>
      <point x="343" y="650" type="curve" smooth="yes"/>
      <point x="523" y="650"/>
      <point x="657" y="552"/>
      <point x="657" y="349" type="curve" smooth="yes"/>
      <point x="657" y="140"/>
      <point x="535" y="-10"/>
      <point x="343" y="-10" type="curve" smooth="yes"/>
      <point x="149" y="-10"/>
      <point x="24" y="140"/>
      <point x="30" y="349" type="curve" smooth="yes"/>
      <point x="36" y="552"/>
    </contour>
    <contour>
      <point x="265" y="135"/>
      <point x="343" y="135" type="curve" smooth="yes"/>
      <point x="430" y="135"/>
      <point x="478" y="210"/>
      <point x="472" y="356" type="curve" smooth="yes"/>
      <point x="468" y="452"/>
      <point x="442" y="506"/>
      <point x="343" y="506" type="curve" smooth="yes"/>
      <point x="243" y="506"/>
      <point x="219" y="452"/>
      <point x="215" y="356" type="curve" smooth="yes"/>
      <point x="209" y="210"/>
    </contour>
    <contour>
      <point x="343" y="0" type="move" name="bottom"/>
    </contour>
    <contour>
      <point x="343" y="320" type="move" name="center"/>
    </contour>
    <contour>
      <point x="624" y="10" type="move" name="ogonek"/>
    </contour>
    <contour>
      <point x="343" y="640" type="move" name="top"/>
    </contour>
    <contour>
      <point x="11" y="640" type="move" name="topleft"/>
    </contour>
    <contour>
      <point x="674" y="640" type="move" name="topright"/>
    </contour>
  </outline>
</glyph>
<glyph name="P" format="1">
  <advance width="598"/>
  <unicode hex="0050"/>
  <note>
    P
  </note>
  <outline>
    <contour>
      <point x="403" y="345"/>
      <point x="367" y="304"/>
      <point x="289" y="304" type="curve" smooth="yes"/>
      <point x="233" y="304" type="line"/>
      <point x="233" y="507" type="line"/>
      <point x="325" y="507" type="line" smooth="yes"/>
      <point x="381" y="507"/>
      <point x="403" y="480"/>
      <point x="403" y="406" type="curve" smooth="yes"/>
    </contour>
    <contour>
      <point x="233" y="0" type="line"/>
      <point x="233" y="182" type="line"/>
      <point x="275" y="182" type="line" smooth="yes"/>
      <point x="488" y="182"/>
      <point x="578" y="264"/>
      <point x="578" y="441" type="curve" smooth="yes"/>
      <point x="578" y="579"/>
      <point x="487" y="640"/>
      <point x="355" y="640" type="curve" smooth="yes"/>
      <point x="58" y="640" type="line"/>
      <point x="58" y="0" type="line"/>
    </contour>
  </outline>
</glyph>
<glyph name="Q" format="1">
  <advance width="665"/>
  <unicode hex="0051"/>
  <note>
    Q
  </note>
  <outline>
    <contour>
      <point x="509" y="115" type="line"/>
      <point x="509" y="132" type="line"/>
      <point x="599" y="178"/>
      <point x="635" y="257"/>
      <point x="635" y="350" type="curve" smooth="yes"/>
      <point x="635" y="549"/>
      <point x="506" y="650"/>
      <point x="332" y="650" type="curve" smooth="yes"/>
      <point x="149" y="650"/>
      <point x="36" y="549"/>
      <point x="30" y="350" type="curve" smooth="yes"/>
      <point x="24" y="146"/>
      <point x="143" y="-10"/>
      <point x="327" y="-10" type="curve" smooth="yes"/>
      <point x="655" y="-10" type="line"/>
      <point x="655" y="125" type="line"/>
    </contour>
    <contour>
      <point x="216" y="357" type="curve" smooth="yes"/>
      <point x="219" y="459"/>
      <point x="240" y="517"/>
      <point x="332" y="517" type="curve" smooth="yes"/>
      <point x="423" y="517"/>
      <point x="446" y="459"/>
      <point x="449" y="357" type="curve" smooth="yes"/>
      <point x="453" y="213"/>
      <point x="412" y="124"/>
      <point x="332" y="124" type="curve" smooth="yes"/>
      <point x="260" y="124"/>
      <point x="212" y="213"/>
    </contour>
    <contour>
      <point x="353" y="0" type="move" name="bottom"/>
    </contour>
    <contour>
      <point x="353" y="320" type="move" name="center"/>
    </contour>
    <contour>
      <point x="634" y="10" type="move" name="ogonek"/>
    </contour>
    <contour>
      <point x="353" y="640" type="move" name="top"/>
    </contour>
    <contour>
      <point x="21" y="640" type="move" name="topleft"/>
    </contour>
    <contour>
      <point x="684" y="640" type="move" name="topright"/>
    </contour>
  </outline>
</glyph>
<glyph name="R" format="1">
  <advance width="641"/>
  <unicode hex="0052"/>
  <note>
    R
  </note>
  <outline>
    <contour>
      <point x="233" y="350" type="curve"/>
      <point x="233" y="509" type="line"/>
      <point x="337" y="509" type="line" smooth="yes"/>
      <point x="397" y="509"/>
      <point x="421" y="486"/>
      <point x="421" y="438" type="curve" smooth="yes"/>
      <point x="421" y="350"/>
      <point x="373" y="336"/>
    </contour>
    <contour>
      <point x="233" y="241" type="line"/>
      <point x="250" y="241" type="line"/>
      <point x="410" y="0" type="line"/>
      <point x="621" y="0" type="line"/>
      <point x="424" y="283" type="line"/>
      <point x="405" y="253" type="line"/>
      <point x="521" y="254"/>
      <point x="599" y="343"/>
      <point x="599" y="463" type="curve" smooth="yes"/>
      <point x="599" y="569"/>
      <point x="532" y="641"/>
      <point x="392" y="641" type="curve" smooth="yes"/>
      <point x="58" y="641" type="line"/>
      <point x="58" y="0" type="line"/>
      <point x="233" y="0" type="line"/>
    </contour>
    <contour>
      <point x="371" y="0" type="move" name="bottom"/>
    </contour>
  </outline>
</glyph>
<glyph name="S" format="1">
  <advance width="529"/>
  <unicode hex="0053"/>
  <note>
    S
  </note>
  <outline>
    <contour>
      <point x="84" y="158"/>
      <point x="30" y="192" type="curve"/>
      <point x="31" y="50" type="line"/>
      <point x="82" y="17"/>
      <point x="157" y="-10"/>
      <point x="272" y="-10" type="curve" smooth="yes"/>
      <point x="401" y="-10"/>
      <point x="509" y="62"/>
      <point x="509" y="179" type="curve" smooth="yes"/>
      <point x="509" y="273"/>
      <point x="460" y="323"/>
      <point x="387" y="353" type="curve" smooth="yes"/>
      <point x="255" y="407" type="line" smooth="yes"/>
      <point x="214" y="424"/>
      <point x="192" y="438"/>
      <point x="192" y="461" type="curve" smooth="yes"/>
      <point x="192" y="485"/>
      <point x="210" y="503"/>
      <point x="269" y="503" type="curve" smooth="yes"/>
      <point x="327" y="503"/>
      <point x="410" y="492"/>
      <point x="479" y="467" type="curve"/>
      <point x="479" y="614" type="line"/>
      <point x="418" y="633"/>
      <point x="353" y="650"/>
      <point x="264" y="650" type="curve" smooth="yes"/>
      <point x="122" y="650"/>
      <point x="20" y="594"/>
      <point x="20" y="466" type="curve" smooth="yes"/>
      <point x="20" y="374"/>
      <point x="85" y="322"/>
      <point x="180" y="283" type="curve" smooth="yes"/>
      <point x="265" y="248" type="line" smooth="yes"/>
      <point x="316" y="227"/>
      <point x="337" y="214"/>
      <point x="337" y="183" type="curve" smooth="yes"/>
      <point x="337" y="147"/>
      <point x="300" y="131"/>
      <point x="252" y="131" type="curve" smooth="yes"/>
      <point x="182" y="131"/>
    </contour>
  </outline>
</glyph>
<glyph name="T" format="1">
  <advance width="549"/>
  <unicode hex="0054"/>
  <note>
    T
  </note>
  <outline>
    <contour>
      <point x="29" y="640" type="line"/>
      <point x="29" y="507" type="line"/>
      <point x="183" y="507" type="line"/>
      <point x="183" y="0" type="line"/>
      <point x="357" y="0" type="line"/>
      <point x="357" y="507" type="line"/>
      <point x="511" y="507" type="line"/>
      <point x="511" y="640" type="line"/>
    </contour>
    <contour>
      <point x="271" y="17" type="move" name="bottom"/>
    </contour>
    <contour>
      <point x="272" y="320" type="move" name="center"/>
    </contour>
    <contour>
      <point x="272" y="640" type="move" name="top"/>
    </contour>
  </outline>
</glyph>
<glyph name="U" format="1">
  <advance width="650"/>
  <unicode hex="0055"/>
  <note>
    U
  </note>
  <outline>
    <contour>
      <point x="427" y="641" type="line"/>
      <point x="602" y="641" type="line"/>
      <point x="601" y="242" type="line" smooth="yes"/>
      <point x="601" y="84"/>
      <point x="497" y="-10"/>
      <point x="325" y="-10" type="curve" smooth="yes"/>
      <point x="153" y="-10"/>
      <point x="49" y="84"/>
      <point x="49" y="242" type="curve" smooth="yes"/>
      <point x="48" y="641" type="line"/>
      <point x="223" y="641" type="line"/>
      <point x="224" y="249" type="line" smooth="yes"/>
      <point x="224" y="156"/>
      <point x="257" y="134"/>
      <point x="325" y="134" type="curve" smooth="yes"/>
      <point x="393" y="134"/>
      <point x="426" y="156"/>
      <point x="426" y="249" type="curve" smooth="yes"/>
    </contour>
    <contour>
      <point x="325" y="0" type="move" name="bottom"/>
    </contour>
    <contour>
      <point x="439" y="13" type="move" name="ogonek"/>
    </contour>
    <contour>
      <point x="325" y="640" type="move" name="top"/>
    </contour>
    <contour>
      <point x="570" y="640" type="move" name="topright"/>
    </contour>
  </outline>
</glyph>
<glyph name="V" format="1">
  <advance width="621"/>
  <unicode hex="0056"/>
  <note>
    V
  </note>
  <outline>
    <contour>
      <point x="410" y="0" type="line"/>
      <point x="225" y="0" type="line"/>
      <point x="8" y="640" type="line"/>
      <point x="181" y="640" type="line"/>
      <point x="276" y="362" type="line"/>
      <point x="312" y="211" type="line"/>
      <point x="319" y="211" type="line"/>
      <point x="355" y="362" type="line"/>
      <point x="441" y="640" type="line"/>
      <point x="613" y="640" type="line"/>
    </contour>
  </outline>
</glyph>
<glyph name="W" format="1">
  <advance width="876"/>
  <unicode hex="0057"/>
  <outline>
    <contour>
      <point x="8" y="640" type="line"/>
      <point x="159" y="0" type="line"/>
      <point x="344" y="0" type="line"/>
      <point x="396" y="182" type="line"/>
      <point x="430" y="319" type="line"/>
      <point x="446" y="319" type="line"/>
      <point x="480" y="182" type="line"/>
      <point x="532" y="0" type="line"/>
      <point x="717" y="0" type="line"/>
      <point x="868" y="640" type="line"/>
      <point x="678" y="640" type="line"/>
      <point x="644" y="399" type="line"/>
      <point x="619" y="243" type="line"/>
      <point x="602" y="243" type="line"/>
      <point x="556" y="414" type="line"/>
      <point x="494" y="641" type="line"/>
      <point x="382" y="641" type="line"/>
      <point x="320" y="414" type="line"/>
      <point x="274" y="254" type="line"/>
      <point x="257" y="254" type="line"/>
      <point x="232" y="399" type="line"/>
      <point x="198" y="640" type="line"/>
    </contour>
    <contour>
      <point x="432" y="0" type="move" name="bottom"/>
    </contour>
    <contour>
      <point x="432" y="640" type="move" name="top"/>
    </contour>
  </outline>
</glyph>
<glyph name="X" format="1">
  <advance width="602"/>
  <unicode hex="0058"/>
  <note>
    X
  </note>
  <outline>
    <contour>
      <point x="193" y="640" type="line"/>
      <point x="0" y="640" type="line"/>
      <point x="226" y="283" type="line"/>
      <point x="264" y="242" type="line"/>
      <point x="409" y="0" type="line"/>
      <point x="602" y="0" type="line"/>
      <point x="376" y="356" type="line"/>
      <point x="334" y="381" type="line"/>
    </contour>
    <contour>
      <point x="416" y="640" type="line"/>
      <point x="269" y="383" type="line"/>
      <point x="205" y="334" type="line"/>
      <point x="7" y="1" type="line"/>
      <point x="196" y="1" type="line"/>
      <point x="352" y="275" type="line"/>
      <point x="399" y="314" type="line"/>
      <point x="600" y="640" type="line"/>
    </contour>
  </outline>
</glyph>
<glyph name="Y" format="1">
  <advance width="623"/>
  <unicode hex="0059"/>
  <note>
    Y
  </note>
  <outline>
    <contour>
      <point x="317" y="391" type="line"/>
      <point x="306" y="391" type="line"/>
      <point x="272" y="488" type="line"/>
      <point x="202" y="640" type="line"/>
      <point x="9" y="640" type="line"/>
      <point x="224" y="209" type="line"/>
      <point x="224" y="0" type="line"/>
      <point x="399" y="0" type="line"/>
      <point x="399" y="209" type="line"/>
      <point x="614" y="640" type="line"/>
      <point x="421" y="640" type="line"/>
      <point x="351" y="488" type="line"/>
    </contour>
    <contour>
      <point x="309" y="0" type="move" name="bottom"/>
    </contour>
    <contour>
      <point x="316" y="640" type="move" name="top"/>
    </contour>
    <contour>
      <point x="41" y="640" type="move" name="topleft"/>
    </contour>
  </outline>
</glyph>
<glyph name="Z" format="1">
  <advance width="540"/>
  <unicode hex="005A"/>
  <note>
    Z
  </note>
  <outline>
    <contour>
      <point x="257" y="133" type="line"/>
      <point x="501" y="538" type="line"/>
      <point x="501" y="640" type="line"/>
      <point x="39" y="640" type="line"/>
      <point x="39" y="507" type="line"/>
      <point x="291" y="507" type="line"/>
      <point x="49" y="102" type="line"/>
      <point x="49" y="0" type="line"/>
      <point x="499" y="0" type="line"/>
      <point x="499" y="133" type="line"/>
    </contour>
  </outline>
</glyph>
<glyph name="bracketleft" format="1">
  <advance width="402"/>
  <unicode hex="005B"/>
  <note>
    bracketleft
  </note>
  <outline>
    <contour>
      <point x="225" y="0" type="line"/>
      <point x="225" y="610" type="line"/>
      <point x="332" y="610" type="line"/>
      <point x="332" y="730" type="line"/>
      <point x="55" y="730" type="line"/>
      <point x="55" y="-120" type="line"/>
      <point x="332" y="-120" type="line"/>
      <point x="332" y="0" type="line"/>
    </contour>
  </outline>
</glyph>
<glyph name="underscore" format="1">
  <advance width="630"/>
  <unicode hex="005F"/>
  <note>
    underscore
  </note>
  <outline>
    <contour>
      <point x="560" y="50" type="line"/>
      <point x="560" y="-60" type="line"/>
      <point x="70" y="-60" type="line"/>
      <point x="70" y="50" type="line"/>
    </contour>
  </outline>
</glyph>
<glyph name="a" format="1">
  <advance width="522"/>
  <unicode hex="0061"/>
  <note>
    a
  </note>
  <outline>
    <contour>
      <point x="314" y="193" type="curve" smooth="yes"/>
      <point x="313" y="281" type="line" smooth="yes"/>
      <point x="313" y="309"/>
      <point x="295" y="339"/>
      <point x="217" y="339" type="curve" smooth="yes"/>
      <point x="151" y="339"/>
      <point x="82" y="309"/>
      <point x="47" y="282" type="curve"/>
      <point x="47" y="426" type="line"/>
      <point x="123" y="460"/>
      <point x="184" y="470"/>
      <point x="259" y="470" type="curve" smooth="yes"/>
      <point x="392" y="470"/>
      <point x="482" y="396"/>
      <point x="482" y="274" type="curve" smooth="yes"/>
      <point x="470" y="0" type="line"/>
      <point x="330" y="0" type="line"/>
      <point x="312" y="77" type="line"/>
      <point x="271" y="26"/>
      <point x="228" y="-10"/>
      <point x="164" y="-10" type="curve" smooth="yes"/>
      <point x="78" y="-10"/>
      <point x="30" y="57"/>
      <point x="30" y="120" type="curve" smooth="yes"/>
      <point x="30" y="200"/>
      <point x="103" y="246"/>
      <point x="199" y="266" type="curve" smooth="yes"/>
      <point x="420" y="313" type="line"/>
      <point x="420" y="230" type="line"/>
      <point x="248" y="191" type="line" smooth="yes"/>
      <point x="223" y="185"/>
      <point x="195" y="174"/>
      <point x="195" y="147" type="curve" smooth="yes"/>
      <point x="195" y="118"/>
      <point x="213" y="102"/>
      <point x="237" y="102" type="curve" smooth="yes"/>
      <point x="284" y="102"/>
      <point x="314" y="133"/>
    </contour>
    <contour>
      <point x="213" y="0" type="move" name="bottom"/>
    </contour>
    <contour>
      <point x="434" y="0" type="move" name="ogonek"/>
    </contour>
    <contour>
      <point x="253" y="460" type="move" name="top"/>
    </contour>
  </outline>
</glyph>
<glyph name="b" format="1">
  <advance width="580"/>
  <unicode hex="0062"/>
  <note>
    b
  </note>
  <outline>
    <contour>
      <point x="50" y="680" type="line"/>
      <point x="50" y="0" type="line"/>
      <point x="185" y="0" type="line"/>
      <point x="220" y="114" type="line"/>
      <point x="220" y="680" type="line"/>
    </contour>
    <contour>
      <point x="380" y="279"/>
      <point x="380" y="242" type="curve" smooth="yes"/>
      <point x="380" y="147"/>
      <point x="348" y="125"/>
      <point x="300" y="125" type="curve" smooth="yes"/>
      <point x="234" y="125"/>
      <point x="220" y="164"/>
      <point x="220" y="232" type="curve" smooth="yes"/>
      <point x="220" y="297"/>
      <point x="244" y="336"/>
      <point x="307" y="336" type="curve" smooth="yes"/>
      <point x="368" y="336"/>
    </contour>
    <contour>
      <point x="189" y="349" type="curve"/>
      <point x="190" y="94" type="line"/>
      <point x="207" y="54"/>
      <point x="258" y="-10"/>
      <point x="344" y="-10" type="curve" smooth="yes"/>
      <point x="480" y="-10"/>
      <point x="550" y="106"/>
      <point x="550" y="241" type="curve" smooth="yes"/>
      <point x="550" y="408"/>
      <point x="460" y="470"/>
      <point x="369" y="470" type="curve" smooth="yes"/>
      <point x="281" y="470"/>
      <point x="221" y="422"/>
    </contour>
  </outline>
</glyph>
<glyph name="c" format="1">
  <advance width="466"/>
  <unicode hex="0063"/>
  <note>
    c
  </note>
  <outline>
    <contour>
      <point x="441" y="303" type="curve"/>
      <point x="441" y="441" type="line"/>
      <point x="401" y="455"/>
      <point x="345" y="470"/>
      <point x="267" y="470" type="curve" smooth="yes"/>
      <point x="133" y="470"/>
      <point x="30" y="416"/>
      <point x="30" y="241" type="curve" smooth="yes"/>
      <point x="30" y="86"/>
      <point x="137" y="-10"/>
      <point x="261" y="-10" type="curve" smooth="yes"/>
      <point x="348" y="-10"/>
      <point x="389" y="6"/>
      <point x="433" y="34" type="curve"/>
      <point x="435" y="153" type="line"/>
      <point x="404" y="127"/>
      <point x="348" y="118"/>
      <point x="313" y="118" type="curve" smooth="yes"/>
      <point x="251" y="118"/>
      <point x="200" y="153"/>
      <point x="200" y="238" type="curve" smooth="yes"/>
      <point x="200" y="311"/>
      <point x="228" y="341"/>
      <point x="303" y="341" type="curve" smooth="yes"/>
      <point x="361" y="341"/>
      <point x="409" y="322"/>
    </contour>
    <contour>
      <point x="271" y="0" type="move" name="bottom"/>
    </contour>
    <contour>
      <point x="261" y="460" type="move" name="top"/>
    </contour>
  </outline>
</glyph>
<glyph name="d" format="1">
  <advance width="580"/>
  <unicode hex="0064"/>
  <note>
    d
  </note>
  <outline>
    <component base="b" xScale="-1" xOffset="580"/>
    <contour>
      <point x="285" y="0" type="move" name="bottom"/>
    </contour>
    <contour>
      <point x="425" y="552" type="move" name="center"/>
    </contour>
    <contour>
      <point x="456" y="680" type="move" name="top"/>
    </contour>
    <contour>
      <point x="540" y="680" type="move" name="topright"/>
    </contour>
  </outline>
</glyph>
<glyph name="e" format="1">
  <advance width="502"/>
  <unicode hex="0065"/>
  <note>
    e
  </note>
  <outline>
    <contour>
      <point x="313" y="280" type="line"/>
      <point x="313" y="321"/>
      <point x="297" y="342"/>
      <point x="257" y="342" type="curve" smooth="yes"/>
      <point x="217" y="342"/>
      <point x="195" y="324"/>
      <point x="195" y="240" type="curve" smooth="yes"/>
      <point x="195" y="152"/>
      <point x="238" y="117"/>
      <point x="324" y="117" type="curve" smooth="yes"/>
      <point x="379" y="117"/>
      <point x="426" y="137"/>
      <point x="454" y="154" type="curve"/>
      <point x="451" y="29" type="line"/>
      <point x="425" y="12"/>
      <point x="360" y="-10"/>
      <point x="285" y="-10" type="curve" smooth="yes"/>
      <point x="123" y="-10"/>
      <point x="30" y="87"/>
      <point x="30" y="238" type="curve" smooth="yes"/>
      <point x="30" y="403"/>
      <point x="122" y="470"/>
      <point x="270" y="470" type="curve" smooth="yes"/>
      <point x="420" y="470"/>
      <point x="506" y="362"/>
      <point x="468" y="195" type="curve"/>
      <point x="180" y="195" type="line"/>
      <point x="180" y="280" type="line"/>
    </contour>
    <contour>
      <point x="355" y="7" type="move" name="ogonek"/>
    </contour>
    <contour>
      <point x="265" y="460" type="move" name="top"/>
    </contour>
  </outline>
</glyph>
<glyph name="f" format="1">
  <advance width="459"/>
  <unicode hex="0066"/>
  <note>
    f
  </note>
  <outline>
    <contour>
      <point x="419" y="626" type="line"/>
      <point x="357" y="638"/>
      <point x="326" y="644"/>
      <point x="279" y="644" type="curve" smooth="yes"/>
      <point x="167" y="644"/>
      <point x="113" y="585"/>
      <point x="113" y="474" type="curve" smooth="yes"/>
      <point x="113" y="425" type="line"/>
      <point x="35" y="425" type="line"/>
      <point x="35" y="306" type="line"/>
      <point x="117" y="306" type="line"/>
      <point x="117" y="0" type="line"/>
      <point x="288" y="0" type="line"/>
      <point x="287" y="306" type="line"/>
      <point x="416" y="306" type="line"/>
      <point x="416" y="426" type="line"/>
      <point x="283" y="426" type="line"/>
      <point x="283" y="467" type="line" smooth="yes"/>
      <point x="283" y="500"/>
      <point x="297" y="511"/>
      <point x="334" y="511" type="curve" smooth="yes"/>
      <point x="358" y="511"/>
      <point x="392" y="508"/>
      <point x="419" y="499" type="curve"/>
    </contour>
  </outline>
</glyph>
<glyph name="g" format="1">
  <advance width="595"/>
  <unicode hex="0067"/>
  <note>
    g
  </note>
  <outline>
    <contour>
      <point x="575" y="460" type="line"/>
      <point x="309" y="460" type="line" smooth="yes"/>
      <point x="177" y="460"/>
      <point x="40" y="419"/>
      <point x="40" y="279" type="curve" smooth="yes"/>
      <point x="40" y="151"/>
      <point x="142" y="85"/>
      <point x="281" y="85" type="curve" smooth="yes"/>
      <point x="437" y="85"/>
      <point x="529" y="145"/>
      <point x="529" y="242" type="curve" smooth="yes"/>
      <point x="529" y="307"/>
      <point x="481" y="342"/>
      <point x="422" y="342" type="curve" smooth="yes"/>
      <point x="412" y="342"/>
      <point x="395" y="342"/>
      <point x="385" y="341" type="curve"/>
      <point x="384" y="327" type="line"/>
      <point x="575" y="360" type="line"/>
    </contour>
    <contour>
      <point x="285" y="331" type="curve" smooth="yes"/>
      <point x="337" y="331"/>
      <point x="353" y="302"/>
      <point x="353" y="272" type="curve" smooth="yes"/>
      <point x="353" y="232"/>
      <point x="333" y="191"/>
      <point x="285" y="191" type="curve" smooth="yes"/>
      <point x="235" y="191"/>
      <point x="216" y="232"/>
      <point x="216" y="272" type="curve" smooth="yes"/>
      <point x="216" y="302"/>
      <point x="232" y="331"/>
    </contour>
    <contour>
      <point x="35" y="-122" type="line"/>
      <point x="71" y="-145"/>
      <point x="150" y="-179"/>
      <point x="285" y="-179" type="curve" smooth="yes"/>
      <point x="483" y="-179"/>
      <point x="561" y="-119"/>
      <point x="561" y="-58" type="curve" smooth="yes"/>
      <point x="561" y="6"/>
      <point x="510" y="48"/>
      <point x="368" y="48" type="curve" smooth="yes"/>
      <point x="283" y="48"/>
      <point x="207" y="29"/>
      <point x="152" y="6" type="curve"/>
      <point x="163" y="-19" type="line"/>
      <point x="283" y="-5"/>
      <point x="351" y="96"/>
      <point x="356" y="116" type="curve"/>
      <point x="267" y="116" type="line"/>
      <point x="252" y="84"/>
      <point x="198" y="49"/>
      <point x="137" y="27" type="curve"/>
      <point x="154" y="-29" type="line"/>
      <point x="189" y="-19"/>
      <point x="248" y="-10"/>
      <point x="289" y="-10" type="curve" smooth="yes"/>
      <point x="366" y="-10"/>
      <point x="380" y="-21"/>
      <point x="380" y="-33" type="curve" smooth="yes"/>
      <point x="380" y="-53"/>
      <point x="320" y="-62"/>
      <point x="285" y="-62" type="curve" smooth="yes"/>
      <point x="159" y="-62"/>
      <point x="97" y="-43"/>
      <point x="35" y="-13" type="curve"/>
    </contour>
    <contour>
      <point x="272" y="0" type="move" name="bottom"/>
    </contour>
    <contour>
      <point x="309" y="460" type="move" name="top"/>
    </contour>
  </outline>
</glyph>
<glyph name="h" format="1">
  <advance width="585"/>
  <unicode hex="0068"/>
  <note>
    h
  </note>
  <outline>
    <contour>
      <point x="225" y="0" type="line"/>
      <point x="225" y="680" type="line"/>
      <point x="55" y="680" type="line"/>
      <point x="55" y="0" type="line"/>
    </contour>
    <contour>
      <point x="55" y="0" type="line"/>
      <point x="225" y="0" type="line"/>
      <point x="225" y="229" type="line" smooth="yes"/>
      <point x="225" y="285"/>
      <point x="257" y="315"/>
      <point x="308" y="315" type="curve" smooth="yes"/>
      <point x="357" y="315"/>
      <point x="375" y="292"/>
      <point x="375" y="250" type="curve" smooth="yes"/>
      <point x="375" y="0" type="line"/>
      <point x="545" y="0" type="line"/>
      <point x="545" y="303" type="line" smooth="yes"/>
      <point x="545" y="418"/>
      <point x="480" y="470"/>
      <point x="389" y="470" type="curve" smooth="yes"/>
      <point x="262" y="470"/>
      <point x="223" y="398"/>
      <point x="177" y="225" type="curve"/>
      <point x="226" y="245" type="line"/>
      <point x="205" y="460" type="line"/>
      <point x="55" y="460" type="line"/>
    </contour>
    <contour>
      <point x="381" y="0" type="move" name="bottom"/>
    </contour>
    <contour>
      <point x="144" y="559" type="move" name="center"/>
    </contour>
    <contour>
      <point x="142" y="680" type="move" name="top"/>
    </contour>
  </outline>
</glyph>
<glyph name="i" format="1">
  <advance width="270"/>
  <unicode hex="0069"/>
  <note>
    i
  </note>
  <outline>
    <contour>
      <point x="47" y="500" type="line"/>
      <point x="227" y="500" type="line"/>
      <point x="227" y="615" type="line"/>
      <point x="47" y="615" type="line"/>
    </contour>
    <component base="dotelessi" xOffset="2"/>
    <contour>
      <point x="135" y="460" type="move" name="_top"/>
    </contour>
  </outline>
</glyph>
<glyph name="j" format="1">
  <advance width="289"/>
  <unicode hex="006A"/>
  <outline>
    <contour>
      <point x="66" y="500" type="line"/>
      <point x="246" y="500" type="line"/>
      <point x="246" y="615" type="line"/>
      <point x="66" y="615" type="line"/>
    </contour>
    <component base="jdotless"/>
    <contour>
      <point x="154" y="460" type="move" name="_top"/>
    </contour>
  </outline>
</glyph>
<glyph name="k" format="1">
  <advance width="556"/>
  <unicode hex="006B"/>
  <note>
    k
  </note>
  <outline>
    <contour>
      <point x="50" y="0" type="line"/>
      <point x="220" y="0" type="line"/>
      <point x="220" y="680" type="line"/>
      <point x="50" y="680" type="line"/>
    </contour>
    <contour>
      <point x="556" y="0" type="line"/>
      <point x="396" y="242" type="line"/>
      <point x="553" y="460" type="line"/>
      <point x="351" y="460" type="line"/>
      <point x="220" y="274" type="line"/>
      <point x="220" y="214" type="line"/>
      <point x="221" y="214" type="line"/>
      <point x="355" y="0" type="line"/>
    </contour>
  </outline>
</glyph>
<glyph name="l" format="1">
  <advance width="271"/>
  <unicode hex="006C"/>
  <note>
    l
  </note>
  <outline>
    <contour>
      <point x="51" y="0" type="line"/>
      <point x="221" y="0" type="line"/>
      <point x="220" y="680" type="line"/>
      <point x="50" y="680" type="line"/>
    </contour>
    <contour>
      <point x="136" y="0" type="move" name="bottom"/>
    </contour>
    <contour>
      <point x="136" y="294" type="move" name="center"/>
    </contour>
    <contour>
      <point x="91" y="640" type="move" name="top"/>
    </contour>
    <contour>
      <point x="130" y="640" type="move" name="topright"/>
    </contour>
  </outline>
</glyph>
<glyph name="m" format="1">
  <advance width="880"/>
  <unicode hex="006D"/>
  <note>
    m
  </note>
  <outline>
    <contour>
      <point x="50" y="0" type="line"/>
      <point x="220" y="0" type="line"/>
      <point x="220" y="244" type="line" smooth="yes"/>
      <point x="220" y="281"/>
      <point x="252" y="309"/>
      <point x="298" y="309" type="curve" smooth="yes"/>
      <point x="331" y="309"/>
      <point x="359" y="304"/>
      <point x="359" y="241" type="curve" smooth="yes"/>
      <point x="359" y="0" type="line"/>
      <point x="529" y="0" type="line"/>
      <point x="529" y="248" type="line" smooth="yes"/>
      <point x="529" y="279"/>
      <point x="565" y="311"/>
      <point x="612" y="309" type="curve" smooth="yes"/>
      <point x="640" y="308"/>
      <point x="670" y="301"/>
      <point x="670" y="238" type="curve" smooth="yes"/>
      <point x="670" y="0" type="line"/>
      <point x="840" y="0" type="line"/>
      <point x="840" y="277" type="line" smooth="yes"/>
      <point x="840" y="408"/>
      <point x="790" y="470"/>
      <point x="688" y="470" type="curve" smooth="yes"/>
      <point x="590" y="470"/>
      <point x="509" y="391"/>
      <point x="511" y="304" type="curve"/>
      <point x="519" y="313" type="line"/>
      <point x="519" y="425"/>
      <point x="464" y="470"/>
      <point x="377" y="470" type="curve" smooth="yes"/>
      <point x="251" y="470"/>
      <point x="220" y="388"/>
      <point x="183" y="264" type="curve"/>
      <point x="220" y="295" type="line"/>
      <point x="200" y="460" type="line"/>
      <point x="50" y="460" type="line"/>
    </contour>
  </outline>
</glyph>
<glyph name="n" format="1">
  <advance width="580"/>
  <unicode hex="006E"/>
  <note>
    n
  </note>
  <outline>
    <contour>
      <point x="50" y="0" type="line"/>
      <point x="50" y="460" type="line"/>
      <point x="200" y="460" type="line"/>
      <point x="221" y="245" type="line"/>
      <point x="172" y="225" type="line"/>
      <point x="218" y="398"/>
      <point x="257" y="470"/>
      <point x="384" y="470" type="curve" smooth="yes"/>
      <point x="475" y="470"/>
      <point x="540" y="413"/>
      <point x="540" y="298" type="curve" smooth="yes"/>
      <point x="540" y="0" type="line"/>
      <point x="370" y="0" type="line"/>
      <point x="370" y="245" type="line" smooth="yes"/>
      <point x="370" y="287"/>
      <point x="352" y="310"/>
      <point x="303" y="310" type="curve" smooth="yes"/>
      <point x="252" y="310"/>
      <point x="220" y="280"/>
      <point x="220" y="224" type="curve" smooth="yes"/>
      <point x="220" y="0" type="line"/>
    </contour>
    <contour>
      <point x="340" y="0" type="move" name="bottom"/>
    </contour>
    <contour>
      <point x="280" y="460" type="move" name="top"/>
    </contour>
  </outline>
</glyph>
<glyph name="o" format="1">
  <advance width="564"/>
  <unicode hex="006F"/>
  <note>
    o
  </note>
  <outline>
    <contour>
      <point x="534" y="382"/>
      <point x="534" y="241" type="curve" smooth="yes"/>
      <point x="534" y="124"/>
      <point x="476" y="-15"/>
      <point x="282" y="-15" type="curve" smooth="yes"/>
      <point x="88" y="-15"/>
      <point x="30" y="124"/>
      <point x="30" y="241" type="curve" smooth="yes"/>
      <point x="30" y="382"/>
      <point x="88" y="475"/>
      <point x="282" y="475" type="curve" smooth="yes"/>
      <point x="476" y="475"/>
    </contour>
    <contour>
      <point x="364" y="175"/>
      <point x="364" y="241" type="curve" smooth="yes"/>
      <point x="364" y="311"/>
      <point x="354" y="345"/>
      <point x="282" y="345" type="curve" smooth="yes"/>
      <point x="210" y="345"/>
      <point x="200" y="311"/>
      <point x="200" y="240" type="curve" smooth="yes"/>
      <point x="200" y="174"/>
      <point x="222" y="115"/>
      <point x="282" y="115" type="curve" smooth="yes"/>
      <point x="342" y="115"/>
    </contour>
    <contour>
      <point x="282" y="0" type="move" name="bottom"/>
    </contour>
    <contour>
      <point x="282" y="230" type="move" name="center"/>
    </contour>
    <contour>
      <point x="496" y="10" type="move" name="ogonek"/>
    </contour>
    <contour>
      <point x="282" y="460" type="move" name="top"/>
    </contour>
    <contour>
      <point x="529" y="460" type="move" name="topright"/>
    </contour>
  </outline>
</glyph>
<glyph name="p" format="1">
  <advance width="601"/>
  <unicode hex="0070"/>
  <note>
    p
  </note>
  <outline>
    <contour>
      <point x="220" y="101" type="line"/>
      <point x="220" y="-160" type="line"/>
      <point x="50" y="-160" type="line"/>
      <point x="50" y="460" type="line"/>
      <point x="200" y="460" type="line"/>
      <point x="223" y="346" type="line"/>
    </contour>
    <contour>
      <point x="391" y="299"/>
      <point x="368" y="340"/>
      <point x="311" y="340" type="curve" smooth="yes"/>
      <point x="250" y="340"/>
      <point x="221" y="297"/>
      <point x="221" y="232" type="curve" smooth="yes"/>
      <point x="221" y="193"/>
      <point x="238" y="121"/>
      <point x="314" y="121" type="curve" smooth="yes"/>
      <point x="360" y="121"/>
      <point x="391" y="146"/>
      <point x="391" y="242" type="curve" smooth="yes"/>
    </contour>
    <contour>
      <point x="210" y="349" type="line"/>
      <point x="242" y="422"/>
      <point x="312" y="470"/>
      <point x="400" y="470" type="curve" smooth="yes"/>
      <point x="491" y="470"/>
      <point x="571" y="408"/>
      <point x="571" y="241" type="curve" smooth="yes"/>
      <point x="571" y="106"/>
      <point x="510" y="-10"/>
      <point x="375" y="-10" type="curve" smooth="yes"/>
      <point x="289" y="-10"/>
      <point x="228" y="54"/>
      <point x="211" y="94" type="curve"/>
    </contour>
  </outline>
</glyph>
<glyph name="r" format="1">
  <advance width="403"/>
  <unicode hex="0072"/>
  <note>
    r
  </note>
  <outline>
    <contour>
      <point x="383" y="469" type="line"/>
      <point x="241" y="483"/>
      <point x="182" y="326"/>
      <point x="182" y="187" type="curve"/>
      <point x="219" y="315" type="line"/>
      <point x="200" y="460" type="line"/>
      <point x="50" y="460" type="line"/>
      <point x="50" y="0" type="line"/>
      <point x="220" y="0" type="line"/>
      <point x="220" y="205" type="line" smooth="yes"/>
      <point x="220" y="292"/>
      <point x="255" y="328"/>
      <point x="383" y="306" type="curve"/>
    </contour>
    <contour>
      <point x="133" y="0" type="move" name="bottom"/>
    </contour>
    <contour>
      <point x="209" y="460" type="move" name="top"/>
    </contour>
  </outline>
</glyph>
<glyph name="s" format="1">
  <advance width="449"/>
  <unicode hex="0073"/>
  <note>
    s
  </note>
  <outline>
    <contour>
      <point x="36" y="160" type="curve"/>
      <point x="36" y="24" type="line"/>
      <point x="72" y="6"/>
      <point x="133" y="-10"/>
      <point x="236" y="-10" type="curve" smooth="yes"/>
      <point x="376" y="-10"/>
      <point x="439" y="59"/>
      <point x="439" y="138" type="curve" smooth="yes"/>
      <point x="439" y="208"/>
      <point x="391" y="252"/>
      <point x="315" y="272" type="curve" smooth="yes"/>
      <point x="234" y="293" type="line" smooth="yes"/>
      <point x="195" y="303"/>
      <point x="190" y="314"/>
      <point x="190" y="323" type="curve" smooth="yes"/>
      <point x="190" y="337"/>
      <point x="200" y="343"/>
      <point x="224" y="344" type="curve" smooth="yes"/>
      <point x="281" y="345"/>
      <point x="357" y="326"/>
      <point x="408" y="306" type="curve"/>
      <point x="408" y="447" type="line"/>
      <point x="360" y="460"/>
      <point x="295" y="470"/>
      <point x="235" y="470" type="curve" smooth="yes"/>
      <point x="99" y="470"/>
      <point x="20" y="423"/>
      <point x="20" y="326" type="curve" smooth="yes"/>
      <point x="20" y="274"/>
      <point x="49" y="208"/>
      <point x="175" y="178" type="curve" smooth="yes"/>
      <point x="247" y="161" type="line" smooth="yes"/>
      <point x="269" y="156"/>
      <point x="275" y="148"/>
      <point x="275" y="137" type="curve" smooth="yes"/>
      <point x="275" y="122"/>
      <point x="255" y="116"/>
      <point x="227" y="116" type="curve" smooth="yes"/>
      <point x="167" y="116"/>
      <point x="79" y="132"/>
    </contour>
    <contour>
      <point x="210" y="0" type="move" name="bottom"/>
    </contour>
  </outline>
</glyph>
<glyph name="t" format="1">
  <advance width="459"/>
  <unicode hex="0074"/>
  <note>
    t
  </note>
  <outline>
    <contour>
      <point x="108" y="340" type="line"/>
      <point x="108" y="142" type="line" smooth="yes"/>
      <point x="108" y="51"/>
      <point x="154" y="-10"/>
      <point x="268" y="-10" type="curve" smooth="yes"/>
      <point x="320" y="-10"/>
      <point x="391" y="9"/>
      <point x="418" y="25" type="curve"/>
      <point x="418" y="146" type="line"/>
      <point x="397" y="138"/>
      <point x="366" y="129"/>
      <point x="332" y="129" type="curve" smooth="yes"/>
      <point x="296" y="129"/>
      <point x="278" y="139"/>
      <point x="278" y="181" type="curve" smooth="yes"/>
      <point x="278" y="340" type="line"/>
      <point x="429" y="340" type="line"/>
      <point x="429" y="460" type="line"/>
      <point x="278" y="460" type="line"/>
      <point x="278" y="576" type="line"/>
      <point x="171" y="576" type="line"/>
      <point x="132" y="506"/>
      <point x="98" y="466"/>
      <point x="15" y="423" type="curve"/>
      <point x="15" y="340" type="line"/>
    </contour>
    <contour>
      <point x="272" y="0" type="move" name="bottom"/>
    </contour>
    <contour>
      <point x="186" y="247" type="move" name="center"/>
    </contour>
    <contour>
      <point x="223" y="576" type="move" name="top"/>
    </contour>
    <contour>
      <point x="398" y="460" type="move" name="topright"/>
    </contour>
  </outline>
</glyph>
<glyph name="u" format="1">
  <advance width="555"/>
  <unicode hex="0075"/>
  <note>
    u
  </note>
  <outline>
    <contour>
      <point x="515" y="460" type="line"/>
      <point x="515" y="0" type="line"/>
      <point x="380" y="0" type="line"/>
      <point x="343" y="170" type="line"/>
      <point x="393" y="170" type="line"/>
      <point x="379" y="83"/>
      <point x="307" y="-10"/>
      <point x="185" y="-10" type="curve" smooth="yes"/>
      <point x="105" y="-10"/>
      <point x="35" y="43"/>
      <point x="35" y="158" type="curve" smooth="yes"/>
      <point x="35" y="460" type="line"/>
      <point x="205" y="460" type="line"/>
      <point x="205" y="199" type="line" smooth="yes"/>
      <point x="205" y="163"/>
      <point x="222" y="144"/>
      <point x="253" y="144" type="curve" smooth="yes"/>
      <point x="296" y="144"/>
      <point x="345" y="167"/>
      <point x="345" y="225" type="curve" smooth="yes"/>
      <point x="345" y="460" type="line"/>
    </contour>
    <contour>
      <point x="222" y="0" type="move" name="bottom"/>
    </contour>
    <contour>
      <point x="479" y="0" type="move" name="ogonek"/>
    </contour>
    <contour>
      <point x="280" y="460" type="move" name="top"/>
    </contour>
    <contour>
      <point x="490" y="460" type="move" name="topright"/>
    </contour>
  </outline>
</glyph>
<glyph name="v" format="1">
  <advance width="520"/>
  <unicode hex="0076"/>
  <note>
    v
  </note>
  <outline>
    <contour>
      <point x="341" y="460" type="line"/>
      <point x="285" y="231" type="line"/>
      <point x="262" y="148" type="line"/>
      <point x="258" y="148" type="line"/>
      <point x="235" y="231" type="line"/>
      <point x="179" y="460" type="line"/>
      <point x="0" y="460" type="line"/>
      <point x="143" y="0" type="line"/>
      <point x="379" y="0" type="line"/>
      <point x="520" y="460" type="line"/>
    </contour>
  </outline>
</glyph>
<glyph name="w" format="1">
  <advance width="844"/>
  <unicode hex="0077"/>
  <note>
    w
  </note>
  <outline>
    <contour>
      <point x="421" y="304" type="line"/>
      <point x="425" y="304" type="line"/>
      <point x="446" y="212" type="line"/>
      <point x="508" y="0" type="line"/>
      <point x="714" y="0" type="line"/>
      <point x="834" y="460" type="line"/>
      <point x="655" y="460" type="line"/>
      <point x="620" y="241" type="line"/>
      <point x="611" y="154" type="line"/>
      <point x="607" y="154" type="line"/>
      <point x="584" y="241" type="line"/>
      <point x="518" y="460" type="line"/>
      <point x="336" y="460" type="line"/>
      <point x="261" y="241" type="line"/>
      <point x="237" y="154" type="line"/>
      <point x="233" y="154" type="line"/>
      <point x="226" y="241" type="line"/>
      <point x="189" y="460" type="line"/>
      <point x="10" y="460" type="line"/>
      <point x="131" y="0" type="line"/>
      <point x="326" y="0" type="line"/>
      <point x="399" y="212" type="line"/>
    </contour>
    <contour>
      <point x="423" y="0" type="move" name="bottom"/>
    </contour>
    <contour>
      <point x="423" y="460" type="move" name="top"/>
    </contour>
  </outline>
</glyph>
<glyph name="x" format="1">
  <advance width="512"/>
  <unicode hex="0078"/>
  <note>
    x
  </note>
  <outline>
    <contour>
      <point x="0" y="460" type="line"/>
      <point x="158" y="232" type="line"/>
      <point x="0" y="0" type="line"/>
      <point x="186" y="0" type="line"/>
      <point x="256" y="119" type="line"/>
      <point x="326" y="0" type="line"/>
      <point x="512" y="0" type="line"/>
      <point x="354" y="232" type="line"/>
      <point x="512" y="460" type="line"/>
      <point x="326" y="460" type="line"/>
      <point x="256" y="345" type="line"/>
      <point x="186" y="460" type="line"/>
    </contour>
  </outline>
</glyph>
<glyph name="y" format="1">
  <advance width="522"/>
  <unicode hex="0079"/>
  <note>
    y
  </note>
  <outline>
    <contour>
      <point x="347" y="460" type="line"/>
      <point x="266" y="226" type="line"/>
      <point x="262" y="226" type="line"/>
      <point x="229" y="313" type="line"/>
      <point x="166" y="460" type="line"/>
      <point x="0" y="460" type="line"/>
      <point x="189" y="38" type="line"/>
      <point x="169" y="-21"/>
      <point x="140" y="-30"/>
      <point x="111" y="-30" type="curve" smooth="yes"/>
      <point x="85" y="-30"/>
      <point x="73" y="-29"/>
      <point x="41" y="-15" type="curve"/>
      <point x="41" y="-138" type="line"/>
      <point x="76" y="-152"/>
      <point x="108" y="-160"/>
      <point x="144" y="-160" type="curve" smooth="yes"/>
      <point x="228" y="-160"/>
      <point x="280" y="-123"/>
      <point x="313" y="-44" type="curve" smooth="yes"/>
      <point x="522" y="460" type="line"/>
    </contour>
    <contour>
      <point x="273" y="0" type="move" name="bottom"/>
    </contour>
    <contour>
      <point x="271" y="460" type="move" name="top"/>
    </contour>
  </outline>
</glyph>
<glyph name="z" format="1">
  <advance width="433"/>
  <unicode hex="007A"/>
  <note>
    z
  </note>
  <outline>
    <contour>
      <point x="30" y="330" type="line"/>
      <point x="30" y="460" type="line"/>
      <point x="413" y="460" type="line"/>
      <point x="413" y="380" type="line"/>
      <point x="248" y="130" type="line"/>
      <point x="409" y="130" type="line"/>
      <point x="408" y="0" type="line"/>
      <point x="35" y="0" type="line"/>
      <point x="35" y="80" type="line"/>
      <point x="200" y="330" type="line"/>
    </contour>
    <contour>
      <point x="232" y="0" type="move" name="bottom"/>
    </contour>
    <contour>
      <point x="232" y="460" type="move" name="top"/>
    </contour>
  </outline>
</glyph>
<glyph name="braceleft" format="1">
  <advance width="487"/>
  <unicode hex="007B"/>
  <note>
    braceleft
  </note>
  <outline>
    <contour>
      <point x="296" y="478" type="line" smooth="yes"/>
      <point x="299" y="553"/>
      <point x="288" y="590"/>
      <point x="403" y="590" type="curve" smooth="yes"/>
      <point x="427" y="590" type="line"/>
      <point x="427" y="730" type="line"/>
      <point x="300" y="730" type="line" smooth="yes"/>
      <point x="221" y="730"/>
      <point x="136" y="691"/>
      <point x="136" y="558" type="curve" smooth="yes"/>
      <point x="136" y="470" type="line" smooth="yes"/>
      <point x="136" y="403"/>
      <point x="91" y="384"/>
      <point x="47" y="384" type="curve" smooth="yes"/>
      <point x="30" y="384" type="line"/>
      <point x="30" y="223" type="line"/>
      <point x="47" y="223" type="line" smooth="yes"/>
      <point x="91" y="223"/>
      <point x="136" y="204"/>
      <point x="136" y="137" type="curve" smooth="yes"/>
      <point x="136" y="49" type="line" smooth="yes"/>
      <point x="136" y="-84"/>
      <point x="221" y="-123"/>
      <point x="300" y="-123" type="curve" smooth="yes"/>
      <point x="427" y="-123" type="line"/>
      <point x="427" y="17" type="line"/>
      <point x="403" y="17" type="line" smooth="yes"/>
      <point x="288" y="17"/>
      <point x="299" y="51"/>
      <point x="296" y="126" type="curve" smooth="yes"/>
      <point x="295" y="156" type="line" smooth="yes"/>
      <point x="293" y="226"/>
      <point x="298" y="292"/>
      <point x="183" y="299" type="curve"/>
      <point x="183" y="309" type="line"/>
      <point x="298" y="316"/>
      <point x="292" y="381"/>
      <point x="295" y="451" type="curve" smooth="yes"/>
    </contour>
  </outline>
</glyph>
<glyph name="bar" format="1">
  <advance width="339"/>
  <unicode hex="007C"/>
  <note>
    bar
  </note>
  <outline>
    <contour>
      <point x="71" y="-180" type="line"/>
      <point x="71" y="730" type="line"/>
      <point x="251" y="730" type="line"/>
      <point x="251" y="-180" type="line"/>
    </contour>
  </outline>
</glyph>
<glyph name="sterling" format="1">
  <advance width="588"/>
  <unicode hex="00A3"/>
  <outline>
    <contour>
      <point x="365" y="517" type="curve" smooth="yes"/>
      <point x="413" y="517"/>
      <point x="463" y="499"/>
      <point x="513" y="481" type="curve"/>
      <point x="513" y="611" type="line"/>
      <point x="458" y="632"/>
      <point x="435" y="650"/>
      <point x="311" y="650" type="curve" smooth="yes"/>
      <point x="145" y="650"/>
      <point x="80" y="562"/>
      <point x="80" y="488" type="curve" smooth="yes"/>
      <point x="80" y="369"/>
      <point x="159" y="347"/>
      <point x="159" y="250" type="curve" smooth="yes"/>
      <point x="159" y="162"/>
      <point x="126" y="136"/>
      <point x="46" y="101" type="curve"/>
      <point x="46" y="-1" type="line"/>
      <point x="530" y="-1" type="line"/>
      <point x="530" y="132" type="line"/>
      <point x="275" y="132" type="line"/>
      <point x="297" y="160"/>
      <point x="335" y="180"/>
      <point x="335" y="250" type="curve" smooth="yes"/>
      <point x="335" y="351"/>
      <point x="274" y="416"/>
      <point x="274" y="471" type="curve" smooth="yes"/>
      <point x="274" y="516"/>
      <point x="323" y="517"/>
    </contour>
    <contour>
      <point x="169" y="270" type="line"/>
      <point x="230" y="267" type="line"/>
      <point x="514" y="267" type="line"/>
      <point x="513" y="358" type="line"/>
      <point x="220" y="358" type="line"/>
      <point x="124" y="358" type="line"/>
      <point x="41" y="358" type="line"/>
      <point x="41" y="270" type="line"/>
    </contour>
  </outline>
</glyph>
<glyph name="copyright" format="1">
  <advance width="810"/>
  <unicode hex="00A9"/>
  <outline>
    <contour>
      <point x="412" y="144" type="curve" smooth="yes"/>
      <point x="295" y="144"/>
      <point x="245" y="204"/>
      <point x="245" y="321" type="curve" smooth="yes"/>
      <point x="245" y="436"/>
      <point x="295" y="495"/>
      <point x="413" y="495" type="curve" smooth="yes"/>
      <point x="451" y="495"/>
      <point x="494" y="488"/>
      <point x="537" y="473" type="curve"/>
      <point x="537" y="357" type="line"/>
      <point x="510" y="361"/>
      <point x="472" y="365"/>
      <point x="446" y="365" type="curve" smooth="yes"/>
      <point x="410" y="365"/>
      <point x="401" y="349"/>
      <point x="401" y="321" type="curve" smooth="yes"/>
      <point x="401" y="290"/>
      <point x="411" y="273"/>
      <point x="451" y="273" type="curve" smooth="yes"/>
      <point x="473" y="273"/>
      <point x="509" y="277"/>
      <point x="537" y="283" type="curve"/>
      <point x="537" y="177" type="line"/>
      <point x="495" y="155"/>
      <point x="452" y="144"/>
    </contour>
    <contour>
      <point x="406" y="-34" type="curve" smooth="yes"/>
      <point x="165" y="-34"/>
      <point x="40" y="80"/>
      <point x="40" y="320" type="curve" smooth="yes"/>
      <point x="40" y="560"/>
      <point x="165" y="674"/>
      <point x="406" y="674" type="curve" smooth="yes"/>
      <point x="646" y="674"/>
      <point x="770" y="560"/>
      <point x="770" y="320" type="curve" smooth="yes"/>
      <point x="770" y="80"/>
      <point x="646" y="-34"/>
    </contour>
    <contour>
      <point x="406" y="74" type="curve" smooth="yes"/>
      <point x="567" y="74"/>
      <point x="651" y="158"/>
      <point x="651" y="320" type="curve" smooth="yes"/>
      <point x="651" y="481"/>
      <point x="567" y="565"/>
      <point x="406" y="565" type="curve" smooth="yes"/>
      <point x="243" y="565"/>
      <point x="160" y="481"/>
      <point x="160" y="320" type="curve" smooth="yes"/>
      <point x="160" y="158"/>
      <point x="243" y="74"/>
    </contour>
  </outline>
</glyph>
<glyph name="guillemetleft" format="1">
  <advance width="568"/>
  <unicode hex="00AB"/>
  <note>
    guillemotleft
  </note>
  <outline>
    <contour>
      <point x="160" y="271" type="curve"/>
      <point x="160" y="277" type="line"/>
      <point x="206" y="316"/>
      <point x="252" y="364"/>
      <point x="288" y="413" type="curve"/>
      <point x="155" y="466" type="line"/>
      <point x="128" y="425"/>
      <point x="64" y="324"/>
      <point x="25" y="276" type="curve"/>
      <point x="25" y="272" type="line"/>
      <point x="64" y="224"/>
      <point x="128" y="123"/>
      <point x="155" y="82" type="curve"/>
      <point x="288" y="135" type="line"/>
      <point x="252" y="184"/>
      <point x="206" y="232"/>
    </contour>
    <contour>
      <point x="400" y="271" type="curve"/>
      <point x="400" y="277" type="line"/>
      <point x="446" y="316"/>
      <point x="492" y="364"/>
      <point x="528" y="413" type="curve"/>
      <point x="395" y="466" type="line"/>
      <point x="368" y="425"/>
      <point x="304" y="324"/>
      <point x="265" y="276" type="curve"/>
      <point x="265" y="272" type="line"/>
      <point x="304" y="224"/>
      <point x="368" y="123"/>
      <point x="395" y="82" type="curve"/>
      <point x="528" y="135" type="line"/>
      <point x="492" y="184"/>
      <point x="446" y="232"/>
    </contour>
  </outline>
</glyph>
<glyph name="degree" format="1">
  <advance width="293"/>
  <unicode hex="00B0"/>
  <note>
    degree
  </note>
  <outline>
    <contour>
      <point x="151" y="359" type="curve" smooth="yes"/>
      <point x="230" y="359"/>
      <point x="296" y="425"/>
      <point x="296" y="505" type="curve" smooth="yes"/>
      <point x="296" y="585"/>
      <point x="230" y="650"/>
      <point x="151" y="650" type="curve" smooth="yes"/>
      <point x="71" y="650"/>
      <point x="5" y="585"/>
      <point x="5" y="505" type="curve" smooth="yes"/>
      <point x="5" y="425"/>
      <point x="71" y="359"/>
    </contour>
    <contour>
      <point x="151" y="460" type="curve" smooth="yes"/>
      <point x="126" y="460"/>
      <point x="106" y="480"/>
      <point x="106" y="505" type="curve" smooth="yes"/>
      <point x="106" y="529"/>
      <point x="126" y="549"/>
      <point x="151" y="549" type="curve" smooth="yes"/>
      <point x="175" y="549"/>
      <point x="195" y="529"/>
      <point x="195" y="505" type="curve" smooth="yes"/>
      <point x="195" y="480"/>
      <point x="175" y="460"/>
    </contour>
  </outline>
</glyph>
<glyph name="plusminus" format="1">
  <advance width="641"/>
  <unicode hex="00B1"/>
  <outline>
    <contour>
      <point x="386" y="225" type="line"/>
      <point x="386" y="556" type="line"/>
      <point x="256" y="556" type="line"/>
      <point x="256" y="225" type="line"/>
    </contour>
    <contour>
      <point x="80" y="312" type="line"/>
      <point x="561" y="312" type="line"/>
      <point x="561" y="442" type="line"/>
      <point x="80" y="442" type="line"/>
    </contour>
    <contour>
      <point x="80" y="39" type="line"/>
      <point x="561" y="39" type="line"/>
      <point x="561" y="169" type="line"/>
      <point x="80" y="169" type="line"/>
    </contour>
  </outline>
</glyph>
<glyph name="periodcentered" format="1">
  <advance width="200"/>
  <unicode hex="00B7"/>
  <note>
    periodcentered
  </note>
  <outline>
    <contour>
      <point x="150" y="185" type="line"/>
      <point x="150" y="295" type="line"/>
      <point x="50" y="295" type="line"/>
      <point x="50" y="185" type="line"/>
    </contour>
  </outline>
</glyph>
<glyph name="AE" format="1">
  <advance width="799"/>
  <unicode hex="00C6"/>
  <note>
    AE
  </note>
  <outline>
    <contour>
      <point x="256" y="235" type="line"/>
      <point x="203" y="109" type="line"/>
      <point x="383" y="109" type="line"/>
      <point x="383" y="0" type="line"/>
      <point x="765" y="0" type="line"/>
      <point x="765" y="133" type="line"/>
      <point x="558" y="133" type="line"/>
      <point x="558" y="273" type="line"/>
      <point x="736" y="273" type="line"/>
      <point x="736" y="375" type="line"/>
      <point x="558" y="375" type="line"/>
      <point x="558" y="507" type="line"/>
      <point x="765" y="507" type="line"/>
      <point x="765" y="640" type="line"/>
      <point x="289" y="640" type="line"/>
      <point x="19" y="0" type="line"/>
      <point x="186" y="0" type="line"/>
      <point x="323" y="354" type="line"/>
      <point x="366" y="496" type="line"/>
      <point x="383" y="496" type="line"/>
      <point x="383" y="235" type="line"/>
    </contour>
    <contour>
      <point x="605" y="0" type="move" name="bottom"/>
    </contour>
    <contour>
      <point x="793" y="0" type="move" name="ogonek"/>
    </contour>
    <contour>
      <point x="596" y="640" type="move" name="top"/>
    </contour>
    <contour>
      <point x="383" y="640" type="move" name="topleft"/>
    </contour>
  </outline>
</glyph>
<glyph name="multiply" format="1">
  <advance width="480"/>
  <unicode hex="00D7"/>
  <note>
    multiply
  </note>
  <outline>
    <contour>
      <point x="437" y="418" type="line"/>
      <point x="342" y="511" type="line"/>
      <point x="240" y="409" type="line"/>
      <point x="137" y="513" type="line"/>
      <point x="44" y="418" type="line"/>
      <point x="147" y="316" type="line"/>
      <point x="44" y="213" type="line"/>
      <point x="137" y="118" type="line"/>
      <point x="240" y="222" type="line"/>
      <point x="342" y="120" type="line"/>
      <point x="437" y="213" type="line"/>
      <point x="334" y="316" type="line"/>
    </contour>
  </outline>
</glyph>
<glyph name="Oslash" format="1">
  <advance width="701"/>
  <unicode hex="00D8"/>
  <outline>
    <contour>
      <point x="47" y="60" type="line"/>
      <point x="169" y="214" type="line"/>
      <point x="205" y="255" type="line"/>
      <point x="414" y="516" type="line"/>
      <point x="462" y="582" type="line"/>
      <point x="542" y="682" type="line"/>
      <point x="671" y="579" type="line"/>
      <point x="588" y="474" type="line"/>
      <point x="523" y="423" type="line"/>
      <point x="300" y="144" type="line"/>
      <point x="284" y="92" type="line"/>
      <point x="176" y="-44" type="line"/>
    </contour>
    <component base="O"/>
  </outline>
</glyph>
<glyph name="Thorn" format="1">
  <advance width="666"/>
  <unicode hex="00DE"/>
  <outline>
    <contour>
      <point x="211" y="548" type="line"/>
      <point x="211" y="415" type="line"/>
      <point x="367" y="413" type="line" smooth="yes"/>
      <point x="422" y="413"/>
      <point x="465" y="396"/>
      <point x="465" y="321" type="curve" smooth="yes"/>
      <point x="465" y="262"/>
      <point x="431" y="230"/>
      <point x="354" y="228" type="curve" smooth="yes"/>
      <point x="211" y="227" type="line"/>
      <point x="211" y="94" type="line"/>
      <point x="373" y="94" type="line" smooth="yes"/>
      <point x="558" y="94"/>
      <point x="646" y="209"/>
      <point x="646" y="333" type="curve" smooth="yes"/>
      <point x="646" y="493"/>
      <point x="547" y="548"/>
      <point x="395" y="548" type="curve" smooth="yes"/>
    </contour>
    <contour>
      <point x="233" y="0" type="line"/>
      <point x="233" y="640" type="line"/>
      <point x="58" y="640" type="line"/>
      <point x="58" y="0" type="line"/>
    </contour>
  </outline>
</glyph>
<glyph name="germandbls" format="1">
  <advance width="586"/>
  <unicode hex="00DF"/>
  <note>
    germandbls
  </note>
  <outline>
    <contour>
      <point x="490" y="309" type="curve" smooth="yes"/>
      <point x="462" y="340" type="line"/>
      <point x="511" y="386"/>
      <point x="544" y="435"/>
      <point x="544" y="482" type="curve" smooth="yes"/>
      <point x="544" y="570"/>
      <point x="443" y="629"/>
      <point x="295" y="629" type="curve" smooth="yes"/>
      <point x="151" y="629"/>
      <point x="58" y="583"/>
      <point x="58" y="466" type="curve" smooth="yes"/>
      <point x="58" y="0" type="line"/>
      <point x="228" y="0" type="line"/>
      <point x="228" y="443" type="line" smooth="yes"/>
      <point x="228" y="472"/>
      <point x="243" y="498"/>
      <point x="302" y="498" type="curve" smooth="yes"/>
      <point x="353" y="498"/>
      <point x="374" y="467"/>
      <point x="374" y="443" type="curve" smooth="yes"/>
      <point x="374" y="386"/>
      <point x="343" y="353"/>
      <point x="292" y="299" type="curve"/>
      <point x="384" y="199" type="line" smooth="yes"/>
      <point x="398" y="184"/>
      <point x="406" y="168"/>
      <point x="406" y="154" type="curve" smooth="yes"/>
      <point x="406" y="132"/>
      <point x="391" y="114"/>
      <point x="356" y="114" type="curve" smooth="yes"/>
      <point x="333" y="114"/>
      <point x="312" y="119"/>
      <point x="294" y="129" type="curve"/>
      <point x="294" y="23" type="line"/>
      <point x="315" y="5"/>
      <point x="359" y="-10"/>
      <point x="414" y="-10" type="curve" smooth="yes"/>
      <point x="503" y="-10"/>
      <point x="576" y="53"/>
      <point x="576" y="151" type="curve" smooth="yes"/>
      <point x="576" y="214"/>
      <point x="538" y="255"/>
    </contour>
  </outline>
</glyph>
<glyph name="ae" format="1">
  <advance width="771"/>
  <unicode hex="00E6"/>
  <note>
    ae
  </note>
  <outline>
    <contour>
      <point x="539" y="475" type="curve" smooth="yes"/>
      <point x="480" y="475"/>
      <point x="415" y="439"/>
      <point x="402" y="410" type="curve"/>
      <point x="373" y="447"/>
      <point x="304" y="475"/>
      <point x="249" y="475" type="curve" smooth="yes"/>
      <point x="174" y="475"/>
      <point x="113" y="465"/>
      <point x="37" y="431" type="curve"/>
      <point x="37" y="291" type="line"/>
      <point x="53" y="304"/>
      <point x="123" y="344"/>
      <point x="207" y="344" type="curve" smooth="yes"/>
      <point x="283" y="344"/>
      <point x="302" y="316"/>
      <point x="303" y="289" type="curve"/>
      <point x="182" y="260" type="line" smooth="yes"/>
      <point x="81" y="236"/>
      <point x="30" y="194"/>
      <point x="30" y="120" type="curve" smooth="yes"/>
      <point x="30" y="57"/>
      <point x="78" y="-15"/>
      <point x="165" y="-15" type="curve" smooth="yes"/>
      <point x="240" y="-15"/>
      <point x="304" y="20"/>
      <point x="341" y="85" type="curve"/>
      <point x="380" y="37"/>
      <point x="448" y="-15"/>
      <point x="554" y="-15" type="curve" smooth="yes"/>
      <point x="629" y="-15"/>
      <point x="694" y="7"/>
      <point x="720" y="24" type="curve"/>
      <point x="723" y="158" type="line"/>
      <point x="695" y="141"/>
      <point x="638" y="127"/>
      <point x="583" y="127" type="curve" smooth="yes"/>
      <point x="514" y="127"/>
      <point x="479" y="143"/>
      <point x="468" y="195" type="curve"/>
      <point x="737" y="195" type="line"/>
      <point x="775" y="367"/>
      <point x="689" y="475"/>
    </contour>
    <contour>
      <point x="470" y="280" type="line"/>
      <point x="470" y="307"/>
      <point x="482" y="347"/>
      <point x="530" y="347" type="curve" smooth="yes"/>
      <point x="566" y="347"/>
      <point x="582" y="326"/>
      <point x="582" y="280" type="curve"/>
    </contour>
    <contour>
      <point x="237" y="98" type="curve" smooth="yes"/>
      <point x="213" y="98"/>
      <point x="195" y="114"/>
      <point x="195" y="143" type="curve" smooth="yes"/>
      <point x="195" y="170"/>
      <point x="223" y="180"/>
      <point x="248" y="187" type="curve" smooth="yes"/>
      <point x="302" y="201" type="line"/>
      <point x="304" y="160" type="line" smooth="yes"/>
      <point x="304" y="129"/>
      <point x="284" y="98"/>
    </contour>
  </outline>
</glyph>
<glyph name="eth" format="1">
  <advance width="563"/>
  <unicode hex="00F0"/>
  <outline>
    <contour>
      <point x="353" y="155" type="curve"/>
      <point x="364" y="357" type="line"/>
      <point x="308" y="445"/>
      <point x="223" y="446"/>
      <point x="201" y="446" type="curve" smooth="yes"/>
      <point x="113" y="446"/>
      <point x="30" y="387"/>
      <point x="30" y="229" type="curve" smooth="yes"/>
      <point x="30" y="91"/>
      <point x="118" y="-15"/>
      <point x="264" y="-15" type="curve" smooth="yes"/>
      <point x="385" y="-15"/>
      <point x="533" y="79"/>
      <point x="533" y="295" type="curve" smooth="yes"/>
      <point x="533" y="487"/>
      <point x="388" y="609"/>
      <point x="350" y="640" type="curve"/>
      <point x="130" y="640" type="line"/>
      <point x="130" y="633" type="line"/>
      <point x="259" y="563"/>
      <point x="353" y="430"/>
      <point x="353" y="283" type="curve" smooth="yes"/>
      <point x="353" y="163"/>
      <point x="333" y="107"/>
      <point x="263" y="107" type="curve" smooth="yes"/>
      <point x="214" y="107"/>
      <point x="200" y="176"/>
      <point x="200" y="229" type="curve" smooth="yes"/>
      <point x="200" y="308"/>
      <point x="220" y="348"/>
      <point x="269" y="348" type="curve" smooth="yes"/>
      <point x="314" y="348"/>
      <point x="361" y="316"/>
    </contour>
    <contour>
      <point x="222" y="458" type="line"/>
      <point x="315" y="504" type="line"/>
      <point x="345" y="519" type="line"/>
      <point x="501" y="558" type="line"/>
      <point x="462" y="640" type="line"/>
      <point x="330" y="573" type="line"/>
      <point x="288" y="565" type="line"/>
      <point x="177" y="545" type="line"/>
    </contour>
  </outline>
</glyph>
<glyph name="divide" format="1">
  <advance width="581"/>
  <unicode hex="00F7"/>
  <note>
    divide
  </note>
  <outline>
    <contour>
      <point x="209" y="433" type="line"/>
      <point x="366" y="433" type="line"/>
      <point x="366" y="560" type="line"/>
      <point x="209" y="560" type="line"/>
    </contour>
    <contour>
      <point x="209" y="46" type="line"/>
      <point x="366" y="46" type="line"/>
      <point x="366" y="173" type="line"/>
      <point x="209" y="173" type="line"/>
    </contour>
    <contour>
      <point x="60" y="238" type="line"/>
      <point x="521" y="238" type="line"/>
      <point x="521" y="368" type="line"/>
      <point x="60" y="368" type="line"/>
    </contour>
  </outline>
</glyph>
<glyph name="oslash" format="1">
  <advance width="564"/>
  <unicode hex="00F8"/>
  <note>
    oslash
  </note>
  <outline>
    <contour>
      <point x="30" y="57" type="line"/>
      <point x="120" y="167" type="line"/>
      <point x="198" y="210" type="line"/>
      <point x="309" y="348" type="line"/>
      <point x="334" y="433" type="line"/>
      <point x="400" y="516" type="line"/>
      <point x="524" y="414" type="line"/>
      <point x="449" y="322" type="line"/>
      <point x="368" y="273" type="line"/>
      <point x="250" y="125" type="line"/>
      <point x="232" y="52" type="line"/>
      <point x="154" y="-45" type="line"/>
    </contour>
    <component base="o"/>
  </outline>
</glyph>
<glyph name="thorn" format="1">
  <advance width="601"/>
  <unicode hex="00FE"/>
  <outline>
    <contour>
      <point x="51" y="680" type="line"/>
      <point x="219" y="680" type="line"/>
      <point x="219" y="-140" type="line"/>
      <point x="51" y="-140" type="line"/>
    </contour>
    <component base="p"/>
  </outline>
</glyph>
<glyph name="idotless" format="1">
  <advance width="270"/>
  <unicode hex="0131"/>
  <outline>
    <contour>
      <point x="220" y="460" type="line"/>
      <point x="220" y="0" type="line"/>
      <point x="50" y="0" type="line"/>
      <point x="50" y="460" type="line"/>
    </contour>
    <contour>
      <point x="134" y="0" type="move" name="bottom"/>
    </contour>
    <contour>
      <point x="180" y="0" type="move" name="ogonek"/>
    </contour>
    <contour>
      <point x="134" y="460" type="move" name="top"/>
    </contour>
  </outline>
</glyph>
<glyph name="Eng" format="1">
  <advance width="689"/>
  <unicode hex="014A"/>
  <outline>
    <contour>
      <point x="446" y="9" type="line" smooth="yes"/>
      <point x="446" y="-29"/>
      <point x="437" y="-42"/>
      <point x="413" y="-42" type="curve" smooth="yes"/>
      <point x="397" y="-42"/>
      <point x="380" y="-34"/>
      <point x="368" y="-28" type="curve"/>
      <point x="368" y="-139" type="line"/>
      <point x="382" y="-157"/>
      <point x="416" y="-171"/>
      <point x="474" y="-171" type="curve" smooth="yes"/>
      <point x="565" y="-171"/>
      <point x="631" y="-95"/>
      <point x="631" y="-9" type="curve" smooth="yes"/>
      <point x="631" y="144" type="line"/>
      <point x="498" y="144" type="line"/>
      <point x="497" y="95" type="line"/>
      <point x="446" y="30" type="line"/>
    </contour>
    <component base="N"/>
  </outline>
</glyph>
<glyph name="eng" format="1">
  <advance width="580"/>
  <unicode hex="014B"/>
  <outline>
    <contour>
      <point x="540" y="149" type="line"/>
      <point x="540" y="-8" type="line" smooth="yes"/>
      <point x="540" y="-96"/>
      <point x="485" y="-170"/>
      <point x="395" y="-170" type="curve" smooth="yes"/>
      <point x="338" y="-170"/>
      <point x="304" y="-156"/>
      <point x="290" y="-138" type="curve"/>
      <point x="290" y="-30" type="line"/>
      <point x="302" y="-36"/>
      <point x="319" y="-44"/>
      <point x="336" y="-44" type="curve" smooth="yes"/>
      <point x="361" y="-44"/>
      <point x="370" y="-30"/>
      <point x="370" y="9" type="curve" smooth="yes"/>
      <point x="370" y="149" type="line"/>
    </contour>
    <component base="n"/>
    <contour>
      <point x="454" y="428" type="move" name="top"/>
    </contour>
  </outline>
</glyph>
<glyph name="OE" format="1">
  <advance width="799"/>
  <unicode hex="0152"/>
  <outline>
    <contour>
      <point x="765" y="133" type="line"/>
      <point x="765" y="0" type="line"/>
      <point x="395" y="0" type="line"/>
      <point x="395" y="640" type="line"/>
      <point x="765" y="640" type="line"/>
      <point x="765" y="507" type="line"/>
      <point x="569" y="507" type="line"/>
      <point x="569" y="380" type="line"/>
      <point x="725" y="380" type="line"/>
      <point x="725" y="278" type="line"/>
      <point x="569" y="278" type="line"/>
      <point x="569" y="133" type="line"/>
    </contour>
    <contour>
      <point x="567" y="0" type="line"/>
      <point x="367" y="0" type="line" smooth="yes"/>
      <point x="142" y="0"/>
      <point x="30" y="151"/>
      <point x="30" y="338" type="curve" smooth="yes"/>
      <point x="30" y="488"/>
      <point x="83" y="640"/>
      <point x="338" y="640" type="curve" smooth="yes"/>
      <point x="567" y="640" type="line"/>
    </contour>
    <contour>
      <point x="393" y="133" type="line"/>
      <point x="393" y="507" type="line"/>
      <point x="381" y="507" type="line" smooth="yes"/>
      <point x="271" y="507"/>
      <point x="215" y="461"/>
      <point x="215" y="332" type="curve" smooth="yes"/>
      <point x="215" y="227"/>
      <point x="258" y="133"/>
      <point x="386" y="133" type="curve" smooth="yes"/>
    </contour>
    <contour>
      <point x="271" y="0" type="move" name="bottom"/>
    </contour>
    <contour>
      <point x="480" y="306" type="move" name="center"/>
    </contour>
    <contour>
      <point x="456" y="10" type="move" name="ogonek"/>
    </contour>
    <contour>
      <point x="175" y="640" type="move" name="top"/>
    </contour>
    <contour>
      <point x="-158" y="640" type="move" name="topleft"/>
    </contour>
  </outline>
</glyph>
<glyph name="oe" format="1">
  <advance width="836"/>
  <unicode hex="0153"/>
  <outline>
    <contour>
      <point x="604" y="475" type="curve" smooth="yes"/>
      <point x="543" y="475"/>
      <point x="489" y="463"/>
      <point x="448" y="438" type="curve"/>
      <point x="409" y="462"/>
      <point x="355" y="475"/>
      <point x="282" y="475" type="curve" smooth="yes"/>
      <point x="88" y="475"/>
      <point x="30" y="382"/>
      <point x="30" y="241" type="curve" smooth="yes"/>
      <point x="30" y="124"/>
      <point x="88" y="-15"/>
      <point x="282" y="-15" type="curve" smooth="yes"/>
      <point x="355" y="-15"/>
      <point x="408" y="5"/>
      <point x="447" y="35" type="curve"/>
      <point x="491" y="3"/>
      <point x="550" y="-15"/>
      <point x="619" y="-15" type="curve" smooth="yes"/>
      <point x="694" y="-15"/>
      <point x="759" y="7"/>
      <point x="785" y="24" type="curve"/>
      <point x="788" y="149" type="line"/>
      <point x="760" y="132"/>
      <point x="713" y="112"/>
      <point x="658" y="112" type="curve" smooth="yes"/>
      <point x="588" y="112"/>
      <point x="546" y="135"/>
      <point x="533" y="195" type="curve"/>
      <point x="802" y="195" type="line"/>
      <point x="840" y="367"/>
      <point x="754" y="475"/>
    </contour>
    <contour>
      <point x="532" y="280" type="line"/>
      <point x="538" y="327"/>
      <point x="549" y="347"/>
      <point x="595" y="347" type="curve" smooth="yes"/>
      <point x="631" y="347"/>
      <point x="647" y="326"/>
      <point x="647" y="280" type="curve"/>
    </contour>
    <contour>
      <point x="282" y="115" type="curve" smooth="yes"/>
      <point x="229" y="115"/>
      <point x="210" y="174"/>
      <point x="210" y="240" type="curve" smooth="yes"/>
      <point x="210" y="311"/>
      <point x="219" y="345"/>
      <point x="282" y="345" type="curve" smooth="yes"/>
      <point x="345" y="345"/>
      <point x="354" y="311"/>
      <point x="354" y="241" type="curve" smooth="yes"/>
      <point x="354" y="175"/>
      <point x="335" y="115"/>
    </contour>
  </outline>
</glyph>
<glyph name="jdotless" format="1">
  <advance width="283"/>
  <unicode hex="0237"/>
  <outline>
    <contour>
      <point x="70" y="9" type="line" smooth="yes"/>
      <point x="70" y="-30"/>
      <point x="48" y="-44"/>
      <point x="26" y="-44" type="curve" smooth="yes"/>
      <point x="-10" y="-44"/>
      <point x="-25" y="-36"/>
      <point x="-42" y="-30" type="curve"/>
      <point x="-42" y="-138" type="line"/>
      <point x="-11" y="-156"/>
      <point x="16" y="-170"/>
      <point x="73" y="-170" type="curve" smooth="yes"/>
      <point x="185" y="-170"/>
      <point x="240" y="-96"/>
      <point x="240" y="-8" type="curve" smooth="yes"/>
      <point x="240" y="460" type="line"/>
      <point x="70" y="460" type="line"/>
    </contour>
    <contour>
      <point x="154" y="460" type="move" name="top"/>
    </contour>
  </outline>
</glyph>
<glyph name="gravecomb" format="1">
  <advance width="271"/>
  <unicode hex="0300"/>
  <outline>
    <component base="acutecomb" xScale="-1" xOffset="271"/>
    <contour>
      <point x="203" y="460" type="move" name="_top"/>
    </contour>
    <contour>
      <point x="161" y="652" type="move" name="top"/>
    </contour>
  </outline>
</glyph>
<glyph name="acutecomb" format="1">
  <advance width="271"/>
  <unicode hex="0301"/>
  <outline>
    <contour>
      <point x="68" y="646" type="line"/>
      <point x="10" y="516" type="line"/>
      <point x="155" y="516" type="line"/>
      <point x="251" y="646" type="line"/>
    </contour>
    <contour>
      <point x="89" y="460" type="move" name="_top"/>
    </contour>
  </outline>
</glyph>
<glyph name="circumflexcomb" format="1">
  <advance width="445"/>
  <unicode hex="0302"/>
  <outline>
    <contour>
      <point x="223" y="654" type="curve"/>
      <point x="221" y="654" type="line"/>
      <point x="186" y="634"/>
      <point x="113" y="611"/>
      <point x="63" y="600" type="curve"/>
      <point x="80" y="504" type="line"/>
      <point x="106" y="504"/>
      <point x="188" y="522"/>
      <point x="221" y="544" type="curve"/>
      <point x="223" y="544" type="line"/>
      <point x="256" y="522"/>
      <point x="338" y="504"/>
      <point x="364" y="504" type="curve"/>
      <point x="381" y="600" type="line"/>
      <point x="331" y="611"/>
      <point x="258" y="634"/>
    </contour>
    <contour>
      <point x="222" y="470" type="move" name="_top"/>
    </contour>
  </outline>
</glyph>
<glyph name="tildecomb" format="1">
  <advance width="324"/>
  <unicode hex="0303"/>
  <outline>
    <contour>
      <point x="167" y="626" type="curve" smooth="yes"/>
      <point x="125" y="635"/>
      <point x="76" y="637"/>
      <point x="30" y="605" type="curve"/>
      <point x="30" y="506" type="line"/>
      <point x="90" y="540"/>
      <point x="125" y="522"/>
      <point x="167" y="513" type="curve" smooth="yes"/>
      <point x="206" y="505"/>
      <point x="258" y="502"/>
      <point x="304" y="534" type="curve"/>
      <point x="304" y="633" type="line"/>
      <point x="244" y="599"/>
      <point x="206" y="618"/>
    </contour>
    <contour>
      <point x="167" y="460" type="move" name="_top"/>
    </contour>
  </outline>
</glyph>
<glyph name="macroncomb" format="1">
  <advance width="300"/>
  <unicode hex="0304"/>
  <outline>
    <contour>
      <point x="20" y="510" type="line"/>
      <point x="280" y="510" type="line"/>
      <point x="280" y="610" type="line"/>
      <point x="20" y="610" type="line"/>
    </contour>
    <contour>
      <point x="150" y="460" type="move" name="_top"/>
    </contour>
  </outline>
</glyph>
<glyph name="brevecomb" format="1">
  <advance width="390"/>
  <unicode hex="0306"/>
  <outline>
    <contour>
      <point x="244" y="640" type="line"/>
      <point x="243" y="611"/>
      <point x="225" y="593"/>
      <point x="195" y="593" type="curve" smooth="yes"/>
      <point x="165" y="593"/>
      <point x="147" y="611"/>
      <point x="146" y="640" type="curve"/>
      <point x="30" y="640" type="line"/>
      <point x="32" y="554"/>
      <point x="81" y="496"/>
      <point x="195" y="496" type="curve" smooth="yes"/>
      <point x="309" y="496"/>
      <point x="358" y="554"/>
      <point x="360" y="640" type="curve"/>
    </contour>
    <contour>
      <point x="195" y="460" type="move" name="_top"/>
    </contour>
    <contour>
      <point x="195" y="640" type="move" name="top"/>
    </contour>
  </outline>
</glyph>
<glyph name="dotaccentcomb" format="1">
  <advance width="190"/>
  <unicode hex="0307"/>
  <outline>
    <contour>
      <point x="41" y="501" type="line"/>
      <point x="159" y="501" type="line"/>
      <point x="159" y="614" type="line"/>
      <point x="41" y="614" type="line"/>
    </contour>
    <contour>
      <point x="95" y="460" type="move" name="_top"/>
    </contour>
  </outline>
</glyph>
<glyph name="dieresiscomb" format="1">
  <advance width="497"/>
  <unicode hex="0308"/>
  <outline>
    <contour>
      <point x="83" y="498" type="line"/>
      <point x="214" y="498" type="line"/>
      <point x="214" y="622" type="line"/>
      <point x="83" y="622" type="line"/>
    </contour>
    <contour>
      <point x="283" y="498" type="line"/>
      <point x="414" y="498" type="line"/>
      <point x="414" y="622" type="line"/>
      <point x="283" y="622" type="line"/>
    </contour>
    <contour>
      <point x="249" y="460" type="move" name="_top"/>
    </contour>
    <contour>
      <point x="249" y="639" type="move" name="top"/>
    </contour>
  </outline>
</glyph>
<glyph name="ringcomb" format="1">
  <advance width="266"/>
  <unicode hex="030A"/>
  <outline>
    <contour>
      <point x="253" y="634" type="curve" smooth="yes"/>
      <point x="253" y="565"/>
      <point x="201" y="517"/>
      <point x="133" y="517" type="curve" smooth="yes"/>
      <point x="68" y="517"/>
      <point x="13" y="563"/>
      <point x="13" y="634" type="curve" smooth="yes"/>
      <point x="13" y="703"/>
      <point x="64" y="745"/>
      <point x="133" y="745" type="curve" smooth="yes"/>
      <point x="202" y="745"/>
      <point x="253" y="704"/>
    </contour>
    <contour>
      <point x="164" y="633" type="curve" smooth="yes"/>
      <point x="164" y="653"/>
      <point x="153" y="665"/>
      <point x="133" y="665" type="curve" smooth="yes"/>
      <point x="113" y="665"/>
      <point x="102" y="653"/>
      <point x="102" y="633" type="curve" smooth="yes"/>
      <point x="102" y="613"/>
      <point x="116" y="597"/>
      <point x="133" y="597" type="curve" smooth="yes"/>
      <point x="150" y="597"/>
      <point x="164" y="613"/>
    </contour>
    <contour>
      <point x="133" y="460" type="move" name="_top"/>
    </contour>
    <contour>
      <point x="133" y="780" type="move" name="top"/>
    </contour>
  </outline>
</glyph>
<glyph name="hungarumlautcomb" format="1">
  <advance width="392"/>
  <unicode hex="030B"/>
  <outline>
    <contour>
      <point x="28" y="670" type="line"/>
      <point x="20" y="520" type="line"/>
      <point x="117" y="520" type="line"/>
      <point x="181" y="670" type="line"/>
    </contour>
    <contour>
      <point x="219" y="670" type="line"/>
      <point x="211" y="520" type="line"/>
      <point x="308" y="520" type="line"/>
      <point x="372" y="670" type="line"/>
    </contour>
    <contour>
      <point x="157" y="460" type="move" name="_top"/>
    </contour>
    <contour>
      <point x="206" y="654" type="move" name="top"/>
    </contour>
  </outline>
</glyph>
<glyph name="caroncomb" format="1">
  <advance width="445"/>
  <unicode hex="030C"/>
  <outline>
    <contour>
      <point x="362" y="630" type="line"/>
      <point x="324" y="650" type="line"/>
      <point x="225" y="597" type="line"/>
      <point x="220" y="597" type="line"/>
      <point x="121" y="650" type="line"/>
      <point x="82" y="630" type="line"/>
      <point x="137" y="510" type="line"/>
      <point x="307" y="510" type="line"/>
    </contour>
    <contour>
      <point x="223" y="460" type="move" name="_top"/>
    </contour>
    <contour>
      <point x="223" y="647" type="move" name="top"/>
    </contour>
  </outline>
</glyph>
<glyph name="commaturnedabovecomb" format="1">
  <advance width="258"/>
  <unicode hex="0312"/>
  <outline>
    <component base="acutecomb" xScale="-1" yScale="-1" xOffset="280" yOffset="1176"/>
    <contour>
      <point x="148" y="460" type="move" name="_top"/>
    </contour>
    <contour>
      <point x="148" y="687" type="move" name="top"/>
    </contour>
  </outline>
</glyph>
<glyph name="commaaccentcomb" format="1">
  <advance width="182"/>
  <unicode hex="0326"/>
  <outline>
    <component base="comma" xOffset="-56" yOffset="-200"/>
    <contour>
      <point x="90" y="0" type="move" name="_bottom"/>
    </contour>
    <contour>
      <point x="111" y="-188" type="move" name="bottom"/>
    </contour>
  </outline>
</glyph>
<glyph name="cedillacomb" format="1">
  <advance width="221"/>
  <unicode hex="0327"/>
  <outline>
    <contour>
      <point x="14" y="-58" type="line"/>
      <point x="18" y="-71" type="line"/>
      <point x="73" y="-78"/>
      <point x="93" y="-91"/>
      <point x="91" y="-103" type="curve" smooth="yes"/>
      <point x="89" y="-116"/>
      <point x="49" y="-134"/>
      <point x="-19" y="-116" type="curve"/>
      <point x="-19" y="-178" type="line"/>
      <point x="132" y="-205"/>
      <point x="202" y="-143"/>
      <point x="211" y="-113" type="curve" smooth="yes"/>
      <point x="221" y="-79"/>
      <point x="207" y="-55"/>
      <point x="138" y="-43" type="curve"/>
      <point x="188" y="7" type="line"/>
      <point x="73" y="7" type="line"/>
    </contour>
    <contour>
      <point x="111" y="0" type="move" name="_bottom"/>
    </contour>
    <contour>
      <point x="111" y="-197" type="move" name="bottom"/>
    </contour>
  </outline>
</glyph>
<glyph name="ogonekcomb" format="1">
  <advance width="600"/>
  <unicode hex="0328"/>
  <outline>
    <contour>
      <point x="339" y="0" type="line"/>
      <point x="253" y="-13"/>
      <point x="227" y="-28"/>
      <point x="227" y="-46" type="curve" smooth="yes"/>
      <point x="227" y="-67"/>
      <point x="249" y="-78"/>
      <point x="281" y="-78" type="curve" smooth="yes"/>
      <point x="298" y="-78"/>
      <point x="317" y="-75"/>
      <point x="338" y="-69" type="curve"/>
      <point x="338" y="-165" type="line"/>
      <point x="303" y="-170"/>
      <point x="272" y="-172"/>
      <point x="244" y="-172" type="curve" smooth="yes"/>
      <point x="149" y="-172"/>
      <point x="95" y="-143"/>
      <point x="95" y="-86" type="curve" smooth="yes"/>
      <point x="95" y="-6"/>
      <point x="177" y="30"/>
      <point x="266" y="50" type="curve"/>
    </contour>
    <contour>
      <point x="303" y="0" type="move" name="_ogonek"/>
    </contour>
  </outline>
</glyph>
<glyph name="strokeshortcomb" format="1">
  <advance width="450"/>
  <unicode hex="0335"/>
  <outline>
    <contour>
      <point x="70" y="253" type="line"/>
      <point x="380" y="253" type="line"/>
      <point x="380" y="383" type="line"/>
      <point x="70" y="383" type="line"/>
    </contour>
    <contour>
      <point x="225" y="318" type="move" name="_center"/>
    </contour>
  </outline>
</glyph>
<glyph name="strokelongcomb" format="1">
  <advance width="700"/>
  <unicode hex="0336"/>
  <outline>
    <contour>
      <point x="695" y="578" type="line"/>
      <point x="695" y="448" type="line"/>
      <point x="559" y="448" type="line"/>
      <point x="514" y="457" type="line"/>
      <point x="182" y="457" type="line"/>
      <point x="129" y="448" type="line"/>
      <point x="5" y="448" type="line"/>
      <point x="5" y="578" type="line"/>
      <point x="130" y="578" type="line"/>
      <point x="181" y="569" type="line"/>
      <point x="521" y="569" type="line"/>
      <point x="561" y="578" type="line"/>
    </contour>
    <contour>
      <point x="350" y="507" type="move" name="_center"/>
    </contour>
  </outline>
</glyph>
<glyph name="slashshortcomb" format="1">
  <advance width="332"/>
  <unicode hex="0337"/>
  <outline>
    <contour>
      <point x="23" y="297" type="line"/>
      <point x="308" y="398" type="line"/>
      <point x="308" y="531" type="line"/>
      <point x="23" y="430" type="line"/>
    </contour>
    <contour>
      <point x="163" y="429" type="move" name="_center"/>
    </contour>
  </outline>
</glyph>
<glyph name="Germandbls" format="1">
  <advance width="700"/>
  <unicode hex="1E9E"/>
  <outline>
    <contour>
      <point x="602" y="286"/>
      <point x="513" y="322" type="curve"/>
      <point x="643" y="514" type="line"/>
      <point x="590" y="585"/>
      <point x="508" y="650"/>
      <point x="354" y="650" type="curve" smooth="yes"/>
      <point x="166" y="650"/>
      <point x="58" y="574"/>
      <point x="58" y="440" type="curve" smooth="yes"/>
      <point x="58" y="0" type="line"/>
      <point x="233" y="0" type="line"/>
      <point x="233" y="432" type="line" smooth="yes"/>
      <point x="233" y="503"/>
      <point x="277" y="521"/>
      <point x="340" y="521" type="curve" smooth="yes"/>
      <point x="386" y="521"/>
      <point x="433" y="504"/>
      <point x="453" y="477" type="curve"/>
      <point x="327" y="284" type="line"/>
      <point x="442" y="243"/>
      <point x="473" y="222"/>
      <point x="473" y="175" type="curve" smooth="yes"/>
      <point x="473" y="144"/>
      <point x="446" y="118"/>
      <point x="412" y="118" type="curve" smooth="yes"/>
      <point x="383" y="118"/>
      <point x="328" y="137"/>
      <point x="302" y="157" type="curve"/>
      <point x="302" y="32" type="line"/>
      <point x="358" y="1"/>
      <point x="416" y="-15"/>
      <point x="472" y="-15" type="curve" smooth="yes"/>
      <point x="559" y="-15"/>
      <point x="653" y="45"/>
      <point x="653" y="150" type="curve" smooth="yes"/>
      <point x="653" y="230"/>
    </contour>
    <contour>
      <point x="562" y="0" type="move" name="bottom"/>
    </contour>
    <contour>
      <point x="573" y="460" type="move" name="top"/>
    </contour>
  </outline>
</glyph>
<glyph name="figuredash" format="1">
  <advance width="749"/>
  <unicode hex="2012"/>
  <note>
    figuredash
  </note>
  <outline>
    <contour>
      <point x="70" y="225" type="line"/>
      <point x="679" y="225" type="line"/>
      <point x="679" y="335" type="line"/>
      <point x="70" y="335" type="line"/>
    </contour>
  </outline>
</glyph>
<glyph name="endash" format="1">
  <advance width="591"/>
  <unicode hex="2013"/>
  <note>
    endash
  </note>
  <outline>
    <contour>
      <point x="70" y="225" type="line"/>
      <point x="521" y="225" type="line"/>
      <point x="521" y="335" type="line"/>
      <point x="70" y="335" type="line"/>
    </contour>
  </outline>
</glyph>
<glyph name="emdash" format="1">
  <advance width="1073"/>
  <unicode hex="2014"/>
  <note>
    emdash
  </note>
  <outline>
    <contour>
      <point x="70" y="225" type="line"/>
      <point x="1003" y="225" type="line"/>
      <point x="1003" y="335" type="line"/>
      <point x="70" y="335" type="line"/>
    </contour>
  </outline>
</glyph>
<glyph name="bullet" format="1">
  <advance width="476"/>
  <unicode hex="2022"/>
  <note>
    bullet
  </note>
  <outline>
    <contour>
      <point x="166" y="176"/>
      <point x="110" y="230"/>
      <point x="110" y="304" type="curve" smooth="yes"/>
      <point x="110" y="391"/>
      <point x="166" y="432"/>
      <point x="238" y="432" type="curve" smooth="yes"/>
      <point x="310" y="432"/>
      <point x="366" y="391"/>
      <point x="366" y="304" type="curve" smooth="yes"/>
      <point x="366" y="230"/>
      <point x="310" y="176"/>
      <point x="238" y="176" type="curve" smooth="yes"/>
    </contour>
  </outline>
</glyph>
<glyph name="guilsinglleft" format="1">
  <advance width="328"/>
  <unicode hex="2039"/>
  <note>
    guilsinglleft
  </note>
  <outline>
    <contour>
      <point x="160" y="266" type="curve"/>
      <point x="160" y="282" type="line"/>
      <point x="206" y="321"/>
      <point x="252" y="364"/>
      <point x="288" y="413" type="curve"/>
      <point x="155" y="466" type="line"/>
      <point x="128" y="425"/>
      <point x="64" y="324"/>
      <point x="25" y="276" type="curve"/>
      <point x="25" y="272" type="line"/>
      <point x="64" y="224"/>
      <point x="128" y="123"/>
      <point x="155" y="82" type="curve"/>
      <point x="288" y="135" type="line"/>
      <point x="252" y="184"/>
      <point x="206" y="227"/>
    </contour>
  </outline>
</glyph>
<glyph name="euro" format="1">
  <advance width="568"/>
  <unicode hex="20AC"/>
  <note>
    Euro
  </note>
  <outline>
    <contour>
      <point x="481" y="428" type="line"/>
      <point x="49" y="428" type="line"/>
      <point x="30" y="351" type="line"/>
      <point x="468" y="351" type="line"/>
    </contour>
    <contour>
      <point x="459" y="298" type="line"/>
      <point x="49" y="298" type="line"/>
      <point x="30" y="221" type="line"/>
      <point x="444" y="221" type="line"/>
    </contour>
    <contour>
      <point x="359" y="655" type="curve" smooth="yes"/>
      <point x="181" y="655"/>
      <point x="79" y="554"/>
      <point x="79" y="349" type="curve" smooth="yes"/>
      <point x="79" y="124"/>
      <point x="212" y="-15"/>
      <point x="354" y="-15" type="curve" smooth="yes"/>
      <point x="434" y="-15"/>
      <point x="493" y="10"/>
      <point x="519" y="26" type="curve"/>
      <point x="520" y="158" type="line"/>
      <point x="500" y="147"/>
      <point x="472" y="128"/>
      <point x="419" y="128" type="curve" smooth="yes"/>
      <point x="312" y="128"/>
      <point x="261" y="186"/>
      <point x="261" y="319" type="curve" smooth="yes"/>
      <point x="260" y="456"/>
      <point x="280" y="512"/>
      <point x="396" y="512" type="curve" smooth="yes"/>
      <point x="438" y="512"/>
      <point x="476" y="499"/>
      <point x="529" y="461" type="curve"/>
      <point x="529" y="605" type="line"/>
      <point x="493" y="631"/>
      <point x="420" y="655"/>
    </contour>
  </outline>
</glyph>
<glyph name="arrowright" format="1">
  <advance width="693"/>
  <unicode hex="2192"/>
  <outline>
    <contour>
      <point x="410" y="575" type="curve"/>
      <point x="309" y="468" type="line"/>
      <point x="327" y="452"/>
      <point x="447" y="360"/>
      <point x="479" y="332" type="curve"/>
      <point x="479" y="258" type="line"/>
      <point x="447" y="230"/>
      <point x="326" y="136"/>
      <point x="309" y="122" type="curve"/>
      <point x="410" y="15" type="line"/>
      <point x="447" y="58"/>
      <point x="629" y="231"/>
      <point x="676" y="279" type="curve"/>
      <point x="676" y="311" type="line"/>
      <point x="629" y="359"/>
      <point x="443" y="537"/>
    </contour>
    <contour>
      <point x="40" y="208" type="line"/>
      <point x="611" y="237" type="line"/>
      <point x="611" y="353" type="line"/>
      <point x="40" y="382" type="line"/>
    </contour>
  </outline>
</glyph>
<glyph name="minus" format="1">
  <advance width="621"/>
  <unicode hex="2212"/>
  <outline>
    <contour>
      <point x="60" y="245" type="line"/>
      <point x="561" y="245" type="line"/>
      <point x="561" y="375" type="line"/>
      <point x="60" y="375" type="line"/>
    </contour>
  </outline>
</glyph>
<glyph name="approxequal" format="1">
  <advance width="584"/>
  <unicode hex="2248"/>
  <outline>
    <contour>
      <point x="514" y="453" type="line"/>
      <point x="479" y="433"/>
      <point x="444" y="428"/>
      <point x="398" y="428" type="curve" smooth="yes"/>
      <point x="338" y="428"/>
      <point x="280" y="463"/>
      <point x="196" y="463" type="curve" smooth="yes"/>
      <point x="140" y="463"/>
      <point x="106" y="457"/>
      <point x="70" y="436" type="curve"/>
      <point x="70" y="312" type="line"/>
      <point x="103" y="327"/>
      <point x="140" y="339"/>
      <point x="182" y="339" type="curve" smooth="yes"/>
      <point x="259" y="339"/>
      <point x="324" y="302"/>
      <point x="395" y="302" type="curve" smooth="yes"/>
      <point x="437" y="302"/>
      <point x="482" y="305"/>
      <point x="514" y="328" type="curve"/>
    </contour>
    <contour>
      <point x="514" y="243" type="line"/>
      <point x="479" y="223"/>
      <point x="444" y="218"/>
      <point x="398" y="218" type="curve" smooth="yes"/>
      <point x="338" y="218"/>
      <point x="280" y="253"/>
      <point x="196" y="253" type="curve" smooth="yes"/>
      <point x="140" y="253"/>
      <point x="106" y="247"/>
      <point x="70" y="226" type="curve"/>
      <point x="70" y="102" type="line"/>
      <point x="103" y="117"/>
      <point x="140" y="129"/>
      <point x="182" y="129" type="curve" smooth="yes"/>
      <point x="259" y="129"/>
      <point x="324" y="92"/>
      <point x="395" y="92" type="curve" smooth="yes"/>
      <point x="437" y="92"/>
      <point x="482" y="95"/>
      <point x="514" y="118" type="curve"/>
    </contour>
  </outline>
</glyph>
<glyph name="notequal" format="1">
  <advance width="600"/>
  <unicode hex="2260"/>
  <outline>
    <contour>
      <point x="453" y="567" type="line"/>
      <point x="267" y="38" type="line"/>
      <point x="136" y="38" type="line"/>
      <point x="322" y="567" type="line"/>
    </contour>
    <component base="equal"/>
  </outline>
</glyph>
<glyph name=".notdef" format="1">
  <advance width="818"/>
  <note>
    .notdef
  </note>
  <outline>
    <contour>
      <point x="684" y="539" type="line"/>
      <point x="740" y="579" type="line"/>
      <point x="740" y="-99" type="line"/>
      <point x="78" y="-99" type="line"/>
      <point x="78" y="771" type="line"/>
      <point x="593" y="771" type="line"/>
      <point x="593" y="715" type="line"/>
      <point x="134" y="715" type="line"/>
      <point x="134" y="-43" type="line"/>
      <point x="684" y="-43" type="line"/>
    </contour>
    <component base="icon" xOffset="118" yOffset="101"/>
  </outline>
</glyph>
<glyph name="a.ss01" format="1">
  <advance width="592"/>
  <outline>
    <contour>
      <point x="382" y="96" type="line"/>
      <point x="379" y="351" type="line"/>
      <point x="402" y="460" type="line"/>
      <point x="552" y="460" type="line"/>
      <point x="552" y="0" type="line"/>
      <point x="402" y="0" type="line"/>
    </contour>
    <contour>
      <point x="290" y="340" type="curve" smooth="yes"/>
      <point x="233" y="340"/>
      <point x="210" y="299"/>
      <point x="210" y="242" type="curve" smooth="yes"/>
      <point x="210" y="146"/>
      <point x="241" y="121"/>
      <point x="287" y="121" type="curve" smooth="yes"/>
      <point x="363" y="121"/>
      <point x="380" y="188"/>
      <point x="380" y="232" type="curve" smooth="yes"/>
      <point x="380" y="297"/>
      <point x="351" y="340"/>
    </contour>
    <contour>
      <point x="391" y="349" type="curve"/>
      <point x="390" y="94" type="line"/>
      <point x="373" y="54"/>
      <point x="312" y="-10"/>
      <point x="226" y="-10" type="curve" smooth="yes"/>
      <point x="91" y="-10"/>
      <point x="30" y="106"/>
      <point x="30" y="241" type="curve" smooth="yes"/>
      <point x="30" y="408"/>
      <point x="110" y="470"/>
      <point x="201" y="470" type="curve" smooth="yes"/>
      <point x="289" y="470"/>
      <point x="359" y="422"/>
    </contour>
    <contour>
      <point x="515" y="0" type="move" name="ogonek"/>
    </contour>
    <contour>
      <point x="309" y="460" type="move" name="top"/>
    </contour>
  </outline>
</glyph>
<glyph name="ampersand.alt" format="1">
  <advance width="676"/>
  <note>
    ampersand
  </note>
  <outline>
    <contour>
      <point x="322" y="350" type="line" smooth="yes"/>
      <point x="253" y="422"/>
      <point x="239" y="456"/>
      <point x="239" y="488" type="curve" smooth="yes"/>
      <point x="239" y="511"/>
      <point x="251" y="523"/>
      <point x="289" y="523" type="curve" smooth="yes"/>
      <point x="328" y="523"/>
      <point x="343" y="511"/>
      <point x="343" y="488" type="curve" smooth="yes"/>
      <point x="343" y="458"/>
      <point x="322" y="430"/>
      <point x="293" y="408" type="curve" smooth="yes"/>
      <point x="268" y="389" type="line"/>
      <point x="317" y="322" type="line"/>
      <point x="353" y="340" type="line" smooth="yes"/>
      <point x="446" y="385"/>
      <point x="492" y="450"/>
      <point x="492" y="511" type="curve" smooth="yes"/>
      <point x="492" y="601"/>
      <point x="422" y="655"/>
      <point x="282" y="655" type="curve" smooth="yes"/>
      <point x="150" y="655"/>
      <point x="83" y="598"/>
      <point x="83" y="508" type="curve" smooth="yes"/>
      <point x="83" y="462"/>
      <point x="110" y="400"/>
      <point x="152" y="352" type="curve" smooth="yes"/>
      <point x="463" y="0" type="line"/>
      <point x="657" y="0" type="line"/>
    </contour>
    <contour>
      <point x="466" y="362" type="line"/>
      <point x="476" y="290"/>
      <point x="471" y="241"/>
      <point x="431" y="186" type="curve"/>
      <point x="494" y="114" type="line"/>
      <point x="553" y="152"/>
      <point x="636" y="254"/>
      <point x="636" y="362" type="curve"/>
    </contour>
    <contour>
      <point x="479" y="109" type="curve"/>
      <point x="413" y="182" type="line"/>
      <point x="362" y="137"/>
      <point x="345" y="127"/>
      <point x="300" y="127" type="curve" smooth="yes"/>
      <point x="238" y="127"/>
      <point x="205" y="163"/>
      <point x="205" y="207" type="curve" smooth="yes"/>
      <point x="205" y="236"/>
      <point x="220" y="263"/>
      <point x="256" y="280" type="curve"/>
      <point x="221" y="377" type="line"/>
      <point x="107" y="333"/>
      <point x="27" y="270"/>
      <point x="27" y="178" type="curve" smooth="yes"/>
      <point x="27" y="85"/>
      <point x="101" y="-10"/>
      <point x="259" y="-10" type="curve" smooth="yes"/>
      <point x="333" y="-10"/>
      <point x="416" y="11"/>
    </contour>
  </outline>
</glyph>
<glyph name="dotelessi" format="1">
  <advance width="270"/>
  <outline>
    <contour>
      <point x="220" y="0" type="line"/>
      <point x="50" y="0" type="line"/>
      <point x="50" y="460" type="line"/>
      <point x="220" y="460" type="line"/>
    </contour>
    <contour>
      <point x="135" y="460" type="move" name="top"/>
    </contour>
  </outline>
</glyph>
<glyph name="g.ss01" format="1">
  <advance width="592"/>
  <outline>
    <contour>
      <point x="382" y="96" type="line"/>
      <point x="379" y="351" type="line"/>
      <point x="402" y="460" type="line"/>
      <point x="552" y="460" type="line"/>
      <point x="552" y="55" type="line"/>
      <point x="382" y="-15" type="line"/>
    </contour>
    <contour>
      <point x="290" y="345" type="curve" smooth="yes"/>
      <point x="233" y="345"/>
      <point x="210" y="304"/>
      <point x="210" y="242" type="curve" smooth="yes"/>
      <point x="210" y="141"/>
      <point x="241" y="116"/>
      <point x="287" y="116" type="curve" smooth="yes"/>
      <point x="363" y="116"/>
      <point x="380" y="188"/>
      <point x="380" y="232" type="curve" smooth="yes"/>
      <point x="380" y="302"/>
      <point x="351" y="345"/>
    </contour>
    <contour>
      <point x="391" y="354" type="curve"/>
      <point x="390" y="89" type="line"/>
      <point x="373" y="49"/>
      <point x="312" y="-15"/>
      <point x="226" y="-15" type="curve" smooth="yes"/>
      <point x="91" y="-15"/>
      <point x="30" y="101"/>
      <point x="30" y="241" type="curve" smooth="yes"/>
      <point x="30" y="413"/>
      <point x="110" y="475"/>
      <point x="201" y="475" type="curve" smooth="yes"/>
      <point x="289" y="475"/>
      <point x="359" y="427"/>
    </contour>
    <contour>
      <point x="552" y="56" type="line"/>
      <point x="552" y="-116"/>
      <point x="437" y="-202"/>
      <point x="289" y="-202" type="curve" smooth="yes"/>
      <point x="226" y="-202"/>
      <point x="158" y="-187"/>
      <point x="89" y="-156" type="curve"/>
      <point x="87" y="-37" type="line"/>
      <point x="136" y="-63"/>
      <point x="189" y="-76"/>
      <point x="237" y="-76" type="curve" smooth="yes"/>
      <point x="318" y="-76"/>
      <point x="382" y="-36"/>
      <point x="382" y="53" type="curve"/>
    </contour>
    <contour>
      <point x="309" y="460" type="move" name="top"/>
    </contour>
  </outline>
</glyph>
<glyph name="icon" format="1">
  <advance width="745"/>
  <outline>
    <contour>
      <point x="583" y="569" type="line"/>
      <point x="612" y="661" type="line"/>
      <point x="608" y="664" type="line"/>
      <point x="539" y="597" type="line"/>
      <point x="370" y="330" type="line"/>
      <point x="368" y="331" type="line"/>
      <point x="351" y="365"/>
      <point x="358" y="384"/>
      <point x="384" y="403" type="curve"/>
      <point x="230" y="496"/>
      <point x="39" y="178"/>
      <point x="169" y="39" type="curve" smooth="yes"/>
      <point x="171" y="37"/>
      <point x="173" y="33"/>
      <point x="171" y="30" type="curve" smooth="yes"/>
      <point x="126" y="-52" type="line"/>
      <point x="103" y="-116" type="line"/>
      <point x="106" y="-117" type="line"/>
      <point x="154" y="-73" type="line"/>
      <point x="206" y="-2" type="line" smooth="yes"/>
      <point x="209" y="3"/>
      <point x="214" y="5"/>
      <point x="220" y="1" type="curve" smooth="yes"/>
      <point x="233" y="-8"/>
      <point x="263" y="-13"/>
      <point x="284" y="-11" type="curve" smooth="yes"/>
      <point x="347" y="-6"/>
      <point x="428" y="45"/>
      <point x="470" y="133" type="curve" smooth="yes"/>
      <point x="492" y="180"/>
      <point x="506" y="230"/>
      <point x="502" y="275" type="curve" smooth="yes"/>
      <point x="499" y="312"/>
      <point x="491" y="352"/>
      <point x="452" y="368" type="curve" smooth="yes"/>
      <point x="449" y="369"/>
      <point x="448" y="375"/>
      <point x="451" y="379" type="curve" smooth="yes"/>
    </contour>
    <contour>
      <point x="241" y="264" type="curve" smooth="yes"/>
      <point x="203" y="194"/>
      <point x="199" y="117"/>
      <point x="189" y="116" type="curve" smooth="yes"/>
      <point x="179" y="116"/>
      <point x="174" y="132"/>
      <point x="173" y="150" type="curve" smooth="yes"/>
      <point x="170" y="185"/>
      <point x="181" y="239"/>
      <point x="207" y="287" type="curve" smooth="yes"/>
      <point x="235" y="338"/>
      <point x="269" y="367"/>
      <point x="292" y="369" type="curve" smooth="yes"/>
      <point x="299" y="369"/>
      <point x="305" y="367"/>
      <point x="306" y="359" type="curve" smooth="yes"/>
      <point x="307" y="346"/>
      <point x="281" y="336"/>
    </contour>
    <contour>
      <point x="90" y="468" type="line"/>
      <point x="55" y="430" type="line"/>
      <point x="147" y="374" type="line"/>
      <point x="161" y="388" type="line"/>
    </contour>
    <contour>
      <point x="148" y="561" type="line"/>
      <point x="97" y="536" type="line"/>
      <point x="197" y="411" type="line"/>
      <point x="216" y="420" type="line"/>
    </contour>
    <contour>
      <point x="260" y="564" type="line"/>
      <point x="206" y="555" type="line"/>
      <point x="249" y="454" type="line"/>
      <point x="270" y="459" type="line"/>
    </contour>
  </outline>
</glyph>
<glyph name="numerosign" format="1">
  <advance width="1099"/>
  <outline>
    <contour>
      <point x="550" y="650" type="curve" smooth="yes"/>
      <point x="460" y="650"/>
      <point x="404" y="575"/>
      <point x="404" y="488" type="curve" smooth="yes"/>
      <point x="404" y="421" type="line"/>
      <point x="428" y="285" type="line"/>
      <point x="412" y="285" type="line"/>
      <point x="222" y="640" type="line"/>
      <point x="35" y="640" type="line"/>
      <point x="35" y="170" type="line" smooth="yes"/>
      <point x="35" y="132"/>
      <point x="27" y="119"/>
      <point x="3" y="119" type="curve" smooth="yes"/>
      <point x="-13" y="119"/>
      <point x="-30" y="127"/>
      <point x="-42" y="133" type="curve"/>
      <point x="-42" y="22" type="line"/>
      <point x="-28" y="4"/>
      <point x="6" y="-10"/>
      <point x="64" y="-10" type="curve" smooth="yes"/>
      <point x="155" y="-10"/>
      <point x="210" y="65"/>
      <point x="210" y="152" type="curve" smooth="yes"/>
      <point x="210" y="209" type="line"/>
      <point x="190" y="355" type="line"/>
      <point x="206" y="355" type="line"/>
      <point x="393" y="0" type="line"/>
      <point x="579" y="0" type="line"/>
      <point x="579" y="470" type="line" smooth="yes"/>
      <point x="579" y="508"/>
      <point x="588" y="521"/>
      <point x="612" y="521" type="curve" smooth="yes"/>
      <point x="628" y="521"/>
      <point x="645" y="513"/>
      <point x="657" y="507" type="curve"/>
      <point x="657" y="618" type="line"/>
      <point x="643" y="636"/>
      <point x="608" y="650"/>
    </contour>
    <contour>
      <point x="873" y="190" type="curve" smooth="yes"/>
      <point x="999" y="190"/>
      <point x="1069" y="285"/>
      <point x="1069" y="380" type="curve" smooth="yes"/>
      <point x="1069" y="484"/>
      <point x="995" y="540"/>
      <point x="873" y="540" type="curve" smooth="yes"/>
      <point x="750" y="540"/>
      <point x="675" y="480"/>
      <point x="675" y="380" type="curve" smooth="yes"/>
      <point x="675" y="285"/>
      <point x="750" y="190"/>
    </contour>
    <contour>
      <point x="873" y="438" type="curve" smooth="yes"/>
      <point x="904" y="438"/>
      <point x="922" y="425"/>
      <point x="922" y="382" type="curve" smooth="yes"/>
      <point x="922" y="330"/>
      <point x="904" y="291"/>
      <point x="873" y="291" type="curve" smooth="yes"/>
      <point x="842" y="291"/>
      <point x="822" y="330"/>
      <point x="822" y="382" type="curve" smooth="yes"/>
      <point x="822" y="425"/>
      <point x="842" y="438"/>
    </contour>
    <contour>
      <point x="694" y="0" type="line"/>
      <point x="1050" y="0" type="line"/>
      <point x="1050" y="133" type="line"/>
      <point x="694" y="133" type="line"/>
    </contour>
  </outline>
</glyph>
<glyph name="tildecomb.002" format="1">
  <advance width="324"/>
  <outline>
    <contour>
      <point x="167" y="676" type="curve" smooth="yes"/>
      <point x="128" y="694"/>
      <point x="86" y="707"/>
      <point x="30" y="665" type="curve"/>
      <point x="30" y="546" type="line"/>
      <point x="90" y="590"/>
      <point x="128" y="571"/>
      <point x="167" y="553" type="curve" smooth="yes"/>
      <point x="207" y="536"/>
      <point x="248" y="522"/>
      <point x="304" y="564" type="curve"/>
      <point x="304" y="683" type="line"/>
      <point x="244" y="639"/>
      <point x="206" y="658"/>
    </contour>
    <contour>
      <point x="167" y="460" type="move" name="_top"/>
    </contour>
  </outline>
</glyph>
<glyph name="tunera" format="1">
  <advance width="1096"/>
  <outline>
    <contour>
      <point x="267" y="565" type="curve" smooth="yes"/>
      <point x="267" y="595"/>
      <point x="277" y="630"/>
      <point x="326" y="638" type="curve" smooth="yes"/>
      <point x="367" y="645"/>
      <point x="467" y="648"/>
      <point x="551" y="648" type="curve" smooth="yes"/>
      <point x="635" y="648"/>
      <point x="735" y="646"/>
      <point x="775" y="638" type="curve" smooth="yes"/>
      <point x="824" y="628"/>
      <point x="835" y="595"/>
      <point x="835" y="565" type="curve" smooth="yes"/>
      <point x="835" y="534"/>
      <point x="817" y="512"/>
      <point x="694" y="512" type="curve" smooth="yes"/>
      <point x="663" y="512"/>
      <point x="639" y="515"/>
      <point x="616" y="516" type="curve"/>
      <point x="619" y="272" type="line" smooth="yes"/>
      <point x="619" y="238"/>
      <point x="586" y="222"/>
      <point x="551" y="222" type="curve" smooth="yes"/>
      <point x="516" y="222"/>
      <point x="483" y="238"/>
      <point x="483" y="272" type="curve" smooth="yes"/>
      <point x="486" y="516" type="line"/>
      <point x="463" y="515"/>
      <point x="437" y="512"/>
      <point x="407" y="512" type="curve" smooth="yes"/>
      <point x="284" y="512"/>
      <point x="267" y="534"/>
    </contour>
    <contour>
      <point x="274" y="384" type="curve" smooth="yes"/>
      <point x="274" y="419"/>
      <point x="300" y="446"/>
      <point x="336" y="446" type="curve" smooth="yes"/>
      <point x="375" y="446"/>
      <point x="393" y="419"/>
      <point x="393" y="384" type="curve" smooth="yes"/>
      <point x="393" y="344"/>
      <point x="375" y="326"/>
      <point x="336" y="326" type="curve" smooth="yes"/>
      <point x="300" y="326"/>
      <point x="274" y="344"/>
    </contour>
    <contour>
      <point x="702" y="384" type="curve" smooth="yes"/>
      <point x="702" y="419"/>
      <point x="721" y="446"/>
      <point x="759" y="446" type="curve" smooth="yes"/>
      <point x="797" y="446"/>
      <point x="822" y="419"/>
      <point x="822" y="384" type="curve" smooth="yes"/>
      <point x="822" y="344"/>
      <point x="797" y="326"/>
      <point x="759" y="326" type="curve" smooth="yes"/>
      <point x="721" y="326"/>
      <point x="702" y="344"/>
    </contour>
    <contour>
      <point x="276" y="209" type="curve" smooth="yes"/>
      <point x="276" y="247"/>
      <point x="300" y="266"/>
      <point x="326" y="266" type="curve" smooth="yes"/>
      <point x="349" y="266"/>
      <point x="377" y="251"/>
      <point x="393" y="219" type="curve" smooth="yes"/>
      <point x="403" y="199"/>
      <point x="440" y="115"/>
      <point x="551" y="115" type="curve" smooth="yes"/>
      <point x="662" y="115"/>
      <point x="700" y="199"/>
      <point x="709" y="219" type="curve" smooth="yes"/>
      <point x="723" y="251"/>
      <point x="752" y="266"/>
      <point x="775" y="266" type="curve" smooth="yes"/>
      <point x="801" y="266"/>
      <point x="824" y="247"/>
      <point x="824" y="209" type="curve" smooth="yes"/>
      <point x="824" y="77"/>
      <point x="687" y="-17"/>
      <point x="551" y="-17" type="curve" smooth="yes"/>
      <point x="418" y="-17"/>
      <point x="276" y="75"/>
    </contour>
    <contour>
      <point x="548" y="-181" type="curve" smooth="yes"/>
      <point x="834" y="-181"/>
      <point x="1066" y="51"/>
      <point x="1066" y="337" type="curve" smooth="yes"/>
      <point x="1066" y="623"/>
      <point x="834" y="855"/>
      <point x="548" y="855" type="curve" smooth="yes"/>
      <point x="262" y="855"/>
      <point x="30" y="623"/>
      <point x="30" y="337" type="curve" smooth="yes"/>
      <point x="30" y="51"/>
      <point x="262" y="-181"/>
    </contour>
  </outline>
</glyph>
